<?xml version="1.0" encoding="UTF-8" standalone="no"?>
<!DOCTYPE svg PUBLIC "-//W3C//DTD SVG 1.1//EN"
 "http://www.w3.org/Graphics/SVG/1.1/DTD/svg11.dtd">
<!-- Generated by graphviz version 2.40.1 (20161225.0304)
 -->
<!-- Title: Programming Pages: 1 -->
<svg width="1223pt" height="988pt"
 viewBox="0.00 0.00 1222.60 988.00" xmlns="http://www.w3.org/2000/svg" xmlns:xlink="http://www.w3.org/1999/xlink">
<g id="graph0" class="graph" transform="scale(1 1) rotate(0) translate(4 984)">
<title>Programming</title>
<polygon fill="#ffffff" stroke="transparent" points="-4,4 -4,-984 1218.6006,-984 1218.6006,4 -4,4"/>
<!-- root -->
<g id="node1" class="node">
<title>root</title>
<ellipse fill="none" stroke="#000000" cx="607.3003" cy="-382" rx="64.2862" ry="64.2862"/>
<text text-anchor="middle" x="607.3003" y="-377.8" font-family="Times,serif" font-size="14.00" fill="#000000">Programming</text>
</g>
<!-- cpp -->
<g id="node2" class="node">
<title>cpp</title>
<polygon fill="#ffff00" stroke="transparent" points="908.9062,-509.6578 908.9062,-531.6578 979.9062,-531.6578 979.9062,-509.6578 908.9062,-509.6578"/>
<polygon fill="none" stroke="#000000" points="908.9062,-509.6578 908.9062,-531.6578 979.9062,-531.6578 979.9062,-509.6578 908.9062,-509.6578"/>
<text text-anchor="start" x="931.8433" y="-516.0578" font-family="Times,serif" font-size="14.00" fill="#000000">C++</text>
<polygon fill="#ffffff" stroke="transparent" points="908.9062,-487.6578 908.9062,-509.6578 979.9062,-509.6578 979.9062,-487.6578 908.9062,-487.6578"/>
<polygon fill="none" stroke="#000000" points="908.9062,-487.6578 908.9062,-509.6578 979.9062,-509.6578 979.9062,-487.6578 908.9062,-487.6578"/>
<text text-anchor="start" x="911.7498" y="-494.0578" font-family="Times,serif" font-size="14.00" fill="#000000">Description</text>
</g>
<!-- root&#45;&gt;cpp -->
<g id="edge1" class="edge">
<title>root&#45;&gt;cpp</title>
<path fill="none" stroke="#2b78e4" d="M670.5164,-394.1608C820.5547,-423.3484 848.788,-432.8849 909.3003,-481.2066"/>
<polygon fill="#2b78e4" stroke="#2b78e4" points="907.2734,-484.0684 917.2538,-487.6241 911.6691,-478.6207 907.2734,-484.0684"/>
</g>
<!-- java -->
<g id="node3" class="node">
<title>java</title>
<polygon fill="#ffff00" stroke="transparent" points="776.8036,-678.2742 776.8036,-700.2742 847.8036,-700.2742 847.8036,-678.2742 776.8036,-678.2742"/>
<polygon fill="none" stroke="#000000" points="776.8036,-678.2742 776.8036,-700.2742 847.8036,-700.2742 847.8036,-678.2742 776.8036,-678.2742"/>
<text text-anchor="start" x="799.8667" y="-684.6742" font-family="Times,serif" font-size="14.00" fill="#000000">Java</text>
<polygon fill="#ffffff" stroke="transparent" points="776.8036,-656.2742 776.8036,-678.2742 847.8036,-678.2742 847.8036,-656.2742 776.8036,-656.2742"/>
<polygon fill="none" stroke="#000000" points="776.8036,-656.2742 776.8036,-678.2742 847.8036,-678.2742 847.8036,-656.2742 776.8036,-656.2742"/>
<text text-anchor="start" x="779.6472" y="-662.6742" font-family="Times,serif" font-size="14.00" fill="#000000">Description</text>
</g>
<!-- root&#45;&gt;java -->
<g id="edge2" class="edge">
<title>root&#45;&gt;java</title>
<path fill="none" stroke="#2b78e4" d="M652.2396,-428.392C763.7252,-543.9422 777.9978,-564.7469 802.5028,-646.4681"/>
<polygon fill="#2b78e4" stroke="#2b78e4" points="799.1891,-647.6047 805.3878,-656.1969 805.9002,-645.6145 799.1891,-647.6047"/>
</g>
<!-- python -->
<g id="node4" class="node">
<title>python</title>
<polygon fill="#ffff00" stroke="transparent" points="572.3003,-742 572.3003,-764 643.3003,-764 643.3003,-742 572.3003,-742"/>
<polygon fill="none" stroke="#000000" points="572.3003,-742 572.3003,-764 643.3003,-764 643.3003,-742 572.3003,-742"/>
<text text-anchor="start" x="587.9637" y="-748.4" font-family="Times,serif" font-size="14.00" fill="#000000">Python</text>
<polygon fill="#ffffff" stroke="transparent" points="572.3003,-720 572.3003,-742 643.3003,-742 643.3003,-720 572.3003,-720"/>
<polygon fill="none" stroke="#000000" points="572.3003,-720 572.3003,-742 643.3003,-742 643.3003,-720 572.3003,-720"/>
<text text-anchor="start" x="575.1439" y="-726.4" font-family="Times,serif" font-size="14.00" fill="#000000">Description</text>
</g>
<!-- root&#45;&gt;python -->
<g id="edge3" class="edge">
<title>root&#45;&gt;python</title>
<path fill="none" stroke="#2b78e4" d="M607.3003,-446.2224C607.3003,-611.6766 607.3003,-639.0919 607.3003,-709.3309"/>
<polygon fill="#2b78e4" stroke="#2b78e4" points="603.8004,-709.545 607.3003,-719.545 610.8004,-709.545 603.8004,-709.545"/>
</g>
<!-- javascript -->
<g id="node5" class="node">
<title>javascript</title>
<polygon fill="#ffff00" stroke="transparent" points="253.5361,-549.3003 253.5361,-571.3003 324.5361,-571.3003 324.5361,-549.3003 253.5361,-549.3003"/>
<polygon fill="none" stroke="#000000" points="253.5361,-549.3003 253.5361,-571.3003 324.5361,-571.3003 324.5361,-549.3003 253.5361,-549.3003"/>
<text text-anchor="start" x="261.0487" y="-555.7003" font-family="Times,serif" font-size="14.00" fill="#000000">Javascript</text>
<polygon fill="#ffffff" stroke="transparent" points="253.5361,-527.3003 253.5361,-549.3003 324.5361,-549.3003 324.5361,-527.3003 253.5361,-527.3003"/>
<polygon fill="none" stroke="#000000" points="253.5361,-527.3003 253.5361,-549.3003 324.5361,-549.3003 324.5361,-527.3003 253.5361,-527.3003"/>
<text text-anchor="start" x="256.3797" y="-533.7003" font-family="Times,serif" font-size="14.00" fill="#000000">Description</text>
</g>
<!-- root&#45;&gt;javascript -->
<g id="edge4" class="edge">
<title>root&#45;&gt;javascript</title>
<path fill="none" stroke="#2b78e4" d="M546.0539,-401.3949C397.8779,-448.6672 372.8462,-461.0893 316.2855,-519.8399"/>
<polygon fill="#2b78e4" stroke="#2b78e4" points="313.5948,-517.5897 309.2212,-527.2397 318.658,-522.4234 313.5948,-517.5897"/>
</g>
<!-- kotlin -->
<g id="node6" class="node">
<title>kotlin</title>
<polygon fill="#ffff00" stroke="transparent" points="235.6945,-254.3422 235.6945,-276.3422 306.6945,-276.3422 306.6945,-254.3422 235.6945,-254.3422"/>
<polygon fill="none" stroke="#000000" points="235.6945,-254.3422 235.6945,-276.3422 306.6945,-276.3422 306.6945,-254.3422 235.6945,-254.3422"/>
<text text-anchor="start" x="253.3053" y="-260.7422" font-family="Times,serif" font-size="14.00" fill="#000000">Kotlin</text>
<polygon fill="#ffffff" stroke="transparent" points="235.6945,-232.3422 235.6945,-254.3422 306.6945,-254.3422 306.6945,-232.3422 235.6945,-232.3422"/>
<polygon fill="none" stroke="#000000" points="235.6945,-232.3422 235.6945,-254.3422 306.6945,-254.3422 306.6945,-232.3422 235.6945,-232.3422"/>
<text text-anchor="start" x="238.5381" y="-238.7422" font-family="Times,serif" font-size="14.00" fill="#000000">Description</text>
</g>
<!-- root&#45;&gt;kotlin -->
<g id="edge5" class="edge">
<title>root&#45;&gt;kotlin</title>
<path fill="none" stroke="#2b78e4" d="M550.4915,-352.0998C414.168,-280.5869 384.7857,-268.1563 316.3448,-259.4376"/>
<polygon fill="#2b78e4" stroke="#2b78e4" points="316.7633,-255.9628 306.413,-258.2262 315.9157,-262.9113 316.7633,-255.9628"/>
</g>
<!-- rust -->
<g id="node7" class="node">
<title>rust</title>
<polygon fill="#ffff00" stroke="transparent" points="276.0261,-177.4967 276.0261,-199.4967 347.0261,-199.4967 347.0261,-177.4967 276.0261,-177.4967"/>
<polygon fill="none" stroke="#000000" points="276.0261,-177.4967 276.0261,-199.4967 347.0261,-199.4967 347.0261,-177.4967 276.0261,-177.4967"/>
<text text-anchor="start" x="298.6902" y="-183.8967" font-family="Times,serif" font-size="14.00" fill="#000000">Rust</text>
<polygon fill="#ffffff" stroke="transparent" points="276.0261,-155.4967 276.0261,-177.4967 347.0261,-177.4967 347.0261,-155.4967 276.0261,-155.4967"/>
<polygon fill="none" stroke="#000000" points="276.0261,-155.4967 276.0261,-177.4967 347.0261,-177.4967 347.0261,-155.4967 276.0261,-155.4967"/>
<text text-anchor="start" x="278.8697" y="-161.8967" font-family="Times,serif" font-size="14.00" fill="#000000">Description</text>
</g>
<!-- root&#45;&gt;rust -->
<g id="edge6" class="edge">
<title>root&#45;&gt;rust</title>
<path fill="none" stroke="#2b78e4" d="M558.2702,-340.379C442.3157,-242.1664 415.2198,-221.9188 356.1131,-196.2064"/>
<polygon fill="#2b78e4" stroke="#2b78e4" points="357.3114,-192.9121 346.7411,-192.1921 354.5553,-199.3467 357.3114,-192.9121"/>
</g>
<!-- haskell -->
<g id="node8" class="node">
<title>haskell</title>
<polygon fill="#ffff00" stroke="transparent" points="333.5762,-112.5361 333.5762,-134.5361 404.5762,-134.5361 404.5762,-112.5361 333.5762,-112.5361"/>
<polygon fill="none" stroke="#000000" points="333.5762,-112.5361 333.5762,-134.5361 404.5762,-134.5361 404.5762,-112.5361 333.5762,-112.5361"/>
<text text-anchor="start" x="347.6954" y="-118.9361" font-family="Times,serif" font-size="14.00" fill="#000000">Haskell</text>
<polygon fill="#ffffff" stroke="transparent" points="333.5762,-90.5361 333.5762,-112.5361 404.5762,-112.5361 404.5762,-90.5361 333.5762,-90.5361"/>
<polygon fill="none" stroke="#000000" points="333.5762,-90.5361 333.5762,-112.5361 404.5762,-112.5361 404.5762,-90.5361 333.5762,-90.5361"/>
<text text-anchor="start" x="336.4198" y="-96.9361" font-family="Times,serif" font-size="14.00" fill="#000000">Description</text>
</g>
<!-- root&#45;&gt;haskell -->
<g id="edge7" class="edge">
<title>root&#45;&gt;haskell</title>
<path fill="none" stroke="#2b78e4" d="M568.2166,-330.488C474.725,-207.4801 453.5403,-182.2636 403.9212,-141.1249"/>
<polygon fill="#2b78e4" stroke="#2b78e4" points="405.989,-138.294 396.0413,-134.6481 401.5442,-143.7018 405.989,-138.294"/>
</g>
<!-- csharp -->
<g id="node9" class="node">
<title>csharp</title>
<polygon fill="#ffff00" stroke="transparent" points="405,-63.2358 405,-85.2358 476,-85.2358 476,-63.2358 405,-63.2358"/>
<polygon fill="none" stroke="#000000" points="405,-63.2358 405,-85.2358 476,-85.2358 476,-63.2358 405,-63.2358"/>
<text text-anchor="start" x="432.3317" y="-69.6358" font-family="Times,serif" font-size="14.00" fill="#000000">C#</text>
<polygon fill="#ffffff" stroke="transparent" points="405,-41.2358 405,-63.2358 476,-63.2358 476,-41.2358 405,-41.2358"/>
<polygon fill="none" stroke="#000000" points="405,-41.2358 405,-63.2358 476,-63.2358 476,-41.2358 405,-41.2358"/>
<text text-anchor="start" x="407.8436" y="-47.6358" font-family="Times,serif" font-size="14.00" fill="#000000">Description</text>
</g>
<!-- root&#45;&gt;csharp -->
<g id="edge8" class="edge">
<title>root&#45;&gt;csharp</title>
<path fill="none" stroke="#2b78e4" d="M580.3621,-323.5991C512.6284,-176.9665 499.2429,-150.747 460.9908,-94.0091"/>
<polygon fill="#2b78e4" stroke="#2b78e4" points="463.6638,-91.7143 455.1572,-85.3986 457.8685,-95.6406 463.6638,-91.7143"/>
</g>
<!-- php -->
<g id="node10" class="node">
<title>php</title>
<polygon fill="#ffff00" stroke="transparent" points="486.1467,-32.4609 486.1467,-54.4609 557.1467,-54.4609 557.1467,-32.4609 486.1467,-32.4609"/>
<polygon fill="none" stroke="#000000" points="486.1467,-32.4609 486.1467,-54.4609 557.1467,-54.4609 557.1467,-32.4609 486.1467,-32.4609"/>
<text text-anchor="start" x="508.8108" y="-38.8609" font-family="Times,serif" font-size="14.00" fill="#000000">PHP</text>
<polygon fill="#ffffff" stroke="transparent" points="486.1467,-10.4609 486.1467,-32.4609 557.1467,-32.4609 557.1467,-10.4609 486.1467,-10.4609"/>
<polygon fill="none" stroke="#000000" points="486.1467,-10.4609 486.1467,-32.4609 557.1467,-32.4609 557.1467,-10.4609 486.1467,-10.4609"/>
<text text-anchor="start" x="488.9903" y="-16.8609" font-family="Times,serif" font-size="14.00" fill="#000000">Description</text>
</g>
<!-- root&#45;&gt;php -->
<g id="edge9" class="edge">
<title>root&#45;&gt;php</title>
<path fill="none" stroke="#2b78e4" d="M593.5513,-319.3214C558.1617,-158.1966 551.6469,-131.3296 530.9996,-64.2319"/>
<polygon fill="#2b78e4" stroke="#2b78e4" points="534.2826,-63.0011 527.9879,-54.479 527.5943,-65.0665 534.2826,-63.0011"/>
</g>
<!-- swift -->
<g id="node11" class="node">
<title>swift</title>
<polygon fill="#ffff00" stroke="transparent" points="572.3003,-22 572.3003,-44 643.3003,-44 643.3003,-22 572.3003,-22"/>
<polygon fill="none" stroke="#000000" points="572.3003,-22 572.3003,-44 643.3003,-44 643.3003,-22 572.3003,-22"/>
<text text-anchor="start" x="592.6348" y="-28.4" font-family="Times,serif" font-size="14.00" fill="#000000">Swift</text>
<polygon fill="#ffffff" stroke="transparent" points="572.3003,0 572.3003,-22 643.3003,-22 643.3003,0 572.3003,0"/>
<polygon fill="none" stroke="#000000" points="572.3003,0 572.3003,-22 643.3003,-22 643.3003,0 572.3003,0"/>
<text text-anchor="start" x="575.1439" y="-6.4" font-family="Times,serif" font-size="14.00" fill="#000000">Description</text>
</g>
<!-- root&#45;&gt;swift -->
<g id="edge10" class="edge">
<title>root&#45;&gt;swift</title>
<path fill="none" stroke="#2b78e4" d="M607.3003,-317.7776C607.3003,-152.3234 607.3003,-124.9081 607.3003,-54.6691"/>
<polygon fill="#2b78e4" stroke="#2b78e4" points="610.8004,-54.455 607.3003,-44.455 603.8004,-54.455 610.8004,-54.455"/>
</g>
<!-- go -->
<g id="node12" class="node">
<title>go</title>
<polygon fill="#ffff00" stroke="transparent" points="658.454,-32.4609 658.454,-54.4609 729.454,-54.4609 729.454,-32.4609 658.454,-32.4609"/>
<polygon fill="none" stroke="#000000" points="658.454,-32.4609 658.454,-54.4609 729.454,-54.4609 729.454,-32.4609 658.454,-32.4609"/>
<text text-anchor="start" x="685.4007" y="-38.8609" font-family="Times,serif" font-size="14.00" fill="#000000">Go</text>
<polygon fill="#ffffff" stroke="transparent" points="658.454,-10.4609 658.454,-32.4609 729.454,-32.4609 729.454,-10.4609 658.454,-10.4609"/>
<polygon fill="none" stroke="#000000" points="658.454,-10.4609 658.454,-32.4609 729.454,-32.4609 729.454,-10.4609 658.454,-10.4609"/>
<text text-anchor="start" x="661.2976" y="-16.8609" font-family="Times,serif" font-size="14.00" fill="#000000">Description</text>
</g>
<!-- root&#45;&gt;go -->
<g id="edge11" class="edge">
<title>root&#45;&gt;go</title>
<path fill="none" stroke="#2b78e4" d="M621.0493,-319.3214C656.439,-158.1966 662.9537,-131.3296 683.6011,-64.2319"/>
<polygon fill="#2b78e4" stroke="#2b78e4" points="687.0064,-65.0665 686.6128,-54.479 680.318,-63.0011 687.0064,-65.0665"/>
</g>
<!-- r -->
<g id="node13" class="node">
<title>r</title>
<polygon fill="#ffff00" stroke="transparent" points="739.6007,-63.2358 739.6007,-85.2358 810.6007,-85.2358 810.6007,-63.2358 739.6007,-63.2358"/>
<polygon fill="none" stroke="#000000" points="739.6007,-63.2358 739.6007,-85.2358 810.6007,-85.2358 810.6007,-63.2358 739.6007,-63.2358"/>
<text text-anchor="start" x="770.4324" y="-69.6358" font-family="Times,serif" font-size="14.00" fill="#000000">R</text>
<polygon fill="#ffffff" stroke="transparent" points="739.6007,-41.2358 739.6007,-63.2358 810.6007,-63.2358 810.6007,-41.2358 739.6007,-41.2358"/>
<polygon fill="none" stroke="#000000" points="739.6007,-41.2358 739.6007,-63.2358 810.6007,-63.2358 810.6007,-41.2358 739.6007,-41.2358"/>
<text text-anchor="start" x="742.4443" y="-47.6358" font-family="Times,serif" font-size="14.00" fill="#000000">Description</text>
</g>
<!-- root&#45;&gt;r -->
<g id="edge12" class="edge">
<title>root&#45;&gt;r</title>
<path fill="none" stroke="#2b78e4" d="M634.2385,-323.5991C701.9722,-176.9665 715.3577,-150.747 753.6098,-94.0091"/>
<polygon fill="#2b78e4" stroke="#2b78e4" points="756.7321,-95.6406 759.4434,-85.3986 750.9368,-91.7143 756.7321,-95.6406"/>
</g>
<!-- julia -->
<g id="node14" class="node">
<title>julia</title>
<polygon fill="#ffff00" stroke="transparent" points="811.0245,-112.5361 811.0245,-134.5361 882.0245,-134.5361 882.0245,-112.5361 811.0245,-112.5361"/>
<polygon fill="none" stroke="#000000" points="811.0245,-112.5361 811.0245,-134.5361 882.0245,-134.5361 882.0245,-112.5361 811.0245,-112.5361"/>
<text text-anchor="start" x="833.3043" y="-118.9361" font-family="Times,serif" font-size="14.00" fill="#000000">Julia</text>
<polygon fill="#ffffff" stroke="transparent" points="811.0245,-90.5361 811.0245,-112.5361 882.0245,-112.5361 882.0245,-90.5361 811.0245,-90.5361"/>
<polygon fill="none" stroke="#000000" points="811.0245,-90.5361 811.0245,-112.5361 882.0245,-112.5361 882.0245,-90.5361 811.0245,-90.5361"/>
<text text-anchor="start" x="813.8681" y="-96.9361" font-family="Times,serif" font-size="14.00" fill="#000000">Description</text>
</g>
<!-- root&#45;&gt;julia -->
<g id="edge13" class="edge">
<title>root&#45;&gt;julia</title>
<path fill="none" stroke="#2b78e4" d="M646.384,-330.488C739.8756,-207.4801 761.0603,-182.2636 810.6794,-141.1249"/>
<polygon fill="#2b78e4" stroke="#2b78e4" points="813.0564,-143.7018 818.5594,-134.6481 808.6116,-138.294 813.0564,-143.7018"/>
</g>
<!-- scala -->
<g id="node15" class="node">
<title>scala</title>
<polygon fill="#ffff00" stroke="transparent" points="868.5745,-177.4967 868.5745,-199.4967 939.5745,-199.4967 939.5745,-177.4967 868.5745,-177.4967"/>
<polygon fill="none" stroke="#000000" points="868.5745,-177.4967 868.5745,-199.4967 939.5745,-199.4967 939.5745,-177.4967 868.5745,-177.4967"/>
<text text-anchor="start" x="888.916" y="-183.8967" font-family="Times,serif" font-size="14.00" fill="#000000">Scala</text>
<polygon fill="#ffffff" stroke="transparent" points="868.5745,-155.4967 868.5745,-177.4967 939.5745,-177.4967 939.5745,-155.4967 868.5745,-155.4967"/>
<polygon fill="none" stroke="#000000" points="868.5745,-155.4967 868.5745,-177.4967 939.5745,-177.4967 939.5745,-155.4967 868.5745,-155.4967"/>
<text text-anchor="start" x="871.4181" y="-161.8967" font-family="Times,serif" font-size="14.00" fill="#000000">Description</text>
</g>
<!-- root&#45;&gt;scala -->
<g id="edge14" class="edge">
<title>root&#45;&gt;scala</title>
<path fill="none" stroke="#2b78e4" d="M656.3304,-340.379C772.2849,-242.1664 799.3809,-221.9188 858.4875,-196.2064"/>
<polygon fill="#2b78e4" stroke="#2b78e4" points="860.0454,-199.3467 867.8596,-192.1921 857.2892,-192.9121 860.0454,-199.3467"/>
</g>
<!-- clojure -->
<g id="node16" class="node">
<title>clojure</title>
<polygon fill="#ffff00" stroke="transparent" points="908.9062,-254.3422 908.9062,-276.3422 979.9062,-276.3422 979.9062,-254.3422 908.9062,-254.3422"/>
<polygon fill="none" stroke="#000000" points="908.9062,-254.3422 908.9062,-276.3422 979.9062,-276.3422 979.9062,-254.3422 908.9062,-254.3422"/>
<text text-anchor="start" x="923.4097" y="-260.7422" font-family="Times,serif" font-size="14.00" fill="#000000">Clojure</text>
<polygon fill="#ffffff" stroke="transparent" points="908.9062,-232.3422 908.9062,-254.3422 979.9062,-254.3422 979.9062,-232.3422 908.9062,-232.3422"/>
<polygon fill="none" stroke="#000000" points="908.9062,-232.3422 908.9062,-254.3422 979.9062,-254.3422 979.9062,-232.3422 908.9062,-232.3422"/>
<text text-anchor="start" x="911.7498" y="-238.7422" font-family="Times,serif" font-size="14.00" fill="#000000">Description</text>
</g>
<!-- root&#45;&gt;clojure -->
<g id="edge15" class="edge">
<title>root&#45;&gt;clojure</title>
<path fill="none" stroke="#2b78e4" d="M664.1091,-352.0998C800.4326,-280.5869 829.815,-268.1563 898.2559,-259.4376"/>
<polygon fill="#2b78e4" stroke="#2b78e4" points="898.6849,-262.9113 908.1876,-258.2262 897.8374,-255.9628 898.6849,-262.9113"/>
</g>
<!-- ocaml -->
<g id="node17" class="node">
<title>ocaml</title>
<polygon fill="#ffff00" stroke="transparent" points="929.6755,-338.6068 929.6755,-360.6068 1000.6755,-360.6068 1000.6755,-338.6068 929.6755,-338.6068"/>
<polygon fill="none" stroke="#000000" points="929.6755,-338.6068 929.6755,-360.6068 1000.6755,-360.6068 1000.6755,-338.6068 929.6755,-338.6068"/>
<text text-anchor="start" x="944.956" y="-345.0068" font-family="Times,serif" font-size="14.00" fill="#000000">OCaml</text>
<polygon fill="#ffffff" stroke="transparent" points="929.6755,-316.6068 929.6755,-338.6068 1000.6755,-338.6068 1000.6755,-316.6068 929.6755,-316.6068"/>
<polygon fill="none" stroke="#000000" points="929.6755,-316.6068 929.6755,-338.6068 1000.6755,-338.6068 1000.6755,-316.6068 929.6755,-316.6068"/>
<text text-anchor="start" x="932.5191" y="-323.0068" font-family="Times,serif" font-size="14.00" fill="#000000">Description</text>
</g>
<!-- root&#45;&gt;ocaml -->
<g id="edge16" class="edge">
<title>root&#45;&gt;ocaml</title>
<path fill="none" stroke="#2b78e4" d="M669.4204,-365.2718C817.1177,-325.7591 848.2111,-320.6761 918.7631,-331.0733"/>
<polygon fill="#2b78e4" stroke="#2b78e4" points="918.5816,-334.5863 928.9964,-332.6412 919.6418,-327.667 918.5816,-334.5863"/>
</g>
<!-- qt -->
<g id="node18" class="node">
<title>qt</title>
<polygon fill="#ffff00" stroke="transparent" points="1144.1006,-451.4291 1144.1006,-473.4291 1215.1006,-473.4291 1215.1006,-451.4291 1144.1006,-451.4291"/>
<polygon fill="none" stroke="#000000" points="1144.1006,-451.4291 1144.1006,-473.4291 1215.1006,-473.4291 1215.1006,-451.4291 1144.1006,-451.4291"/>
<text text-anchor="start" x="1172.602" y="-457.8291" font-family="Times,serif" font-size="14.00" fill="#000000">Qt</text>
<polygon fill="#ffffff" stroke="transparent" points="1144.1006,-429.4291 1144.1006,-451.4291 1215.1006,-451.4291 1215.1006,-429.4291 1144.1006,-429.4291"/>
<polygon fill="none" stroke="#000000" points="1144.1006,-429.4291 1144.1006,-451.4291 1215.1006,-451.4291 1215.1006,-429.4291 1144.1006,-429.4291"/>
<text text-anchor="start" x="1146.9442" y="-435.8291" font-family="Times,serif" font-size="14.00" fill="#000000">Description</text>
</g>
<!-- cpp&#45;&gt;qt -->
<g id="edge17" class="edge">
<title>cpp&#45;&gt;qt</title>
<path fill="none" stroke="#2b78e4" d="M979.4798,-503.1971C1072.3133,-486.2952 1101.7784,-480.3748 1133.8349,-469.1059"/>
<polygon fill="#2b78e4" stroke="#2b78e4" points="1135.2695,-472.3083 1143.4673,-465.5967 1132.8733,-465.7312 1135.2695,-472.3083"/>
</g>
<!-- boost -->
<g id="node19" class="node">
<title>boost</title>
<polygon fill="#ffff00" stroke="transparent" points="1110.8697,-586.2524 1110.8697,-608.2524 1181.8697,-608.2524 1181.8697,-586.2524 1110.8697,-586.2524"/>
<polygon fill="none" stroke="#000000" points="1110.8697,-586.2524 1110.8697,-608.2524 1181.8697,-608.2524 1181.8697,-586.2524 1110.8697,-586.2524"/>
<text text-anchor="start" x="1131.2021" y="-592.6524" font-family="Times,serif" font-size="14.00" fill="#000000">boost</text>
<polygon fill="#ffffff" stroke="transparent" points="1110.8697,-564.2524 1110.8697,-586.2524 1181.8697,-586.2524 1181.8697,-564.2524 1110.8697,-564.2524"/>
<polygon fill="none" stroke="#000000" points="1110.8697,-564.2524 1110.8697,-586.2524 1181.8697,-586.2524 1181.8697,-564.2524 1110.8697,-564.2524"/>
<text text-anchor="start" x="1113.7133" y="-570.6524" font-family="Times,serif" font-size="14.00" fill="#000000">Description</text>
</g>
<!-- cpp&#45;&gt;boost -->
<g id="edge18" class="edge">
<title>cpp&#45;&gt;boost</title>
<path fill="none" stroke="#2b78e4" d="M979.6809,-520.607C1049.8989,-542.1483 1076.69,-550.8783 1101.181,-562.3945"/>
<polygon fill="#2b78e4" stroke="#2b78e4" points="1099.655,-565.5444 1110.1761,-566.7923 1102.7296,-559.2557 1099.655,-565.5444"/>
</g>
<!-- unreal -->
<g id="node20" class="node">
<title>unreal</title>
<polygon fill="#ffff00" stroke="transparent" points="1038.339,-709.2053 1038.339,-731.2053 1125.339,-731.2053 1125.339,-709.2053 1038.339,-709.2053"/>
<polygon fill="none" stroke="#000000" points="1038.339,-709.2053 1038.339,-731.2053 1125.339,-731.2053 1125.339,-709.2053 1038.339,-709.2053"/>
<text text-anchor="start" x="1041.2166" y="-715.6053" font-family="Times,serif" font-size="14.00" fill="#000000">Unreal Engine</text>
<polygon fill="#ffffff" stroke="transparent" points="1038.339,-687.2053 1038.339,-709.2053 1125.339,-709.2053 1125.339,-687.2053 1038.339,-687.2053"/>
<polygon fill="none" stroke="#000000" points="1038.339,-687.2053 1038.339,-709.2053 1125.339,-709.2053 1125.339,-687.2053 1038.339,-687.2053"/>
<text text-anchor="start" x="1049.1826" y="-693.6053" font-family="Times,serif" font-size="14.00" fill="#000000">Description</text>
</g>
<!-- cpp&#45;&gt;unreal -->
<g id="edge19" class="edge">
<title>cpp&#45;&gt;unreal</title>
<path fill="none" stroke="#2b78e4" d="M966.2529,-531.6905C1045.0409,-609.5392 1058.0827,-625.3972 1072.8258,-677.1956"/>
<polygon fill="#2b78e4" stroke="#2b78e4" points="1069.4796,-678.2275 1075.5144,-686.9357 1076.2273,-676.3649 1069.4796,-678.2275"/>
</g>
<!-- spring -->
<g id="node21" class="node">
<title>spring</title>
<polygon fill="#ffff00" stroke="transparent" points="954.259,-813.1422 954.259,-835.1422 1025.259,-835.1422 1025.259,-813.1422 954.259,-813.1422"/>
<polygon fill="none" stroke="#000000" points="954.259,-813.1422 954.259,-835.1422 1025.259,-835.1422 1025.259,-813.1422 954.259,-813.1422"/>
<text text-anchor="start" x="971.0921" y="-819.5422" font-family="Times,serif" font-size="14.00" fill="#000000">Spring</text>
<polygon fill="#ffffff" stroke="transparent" points="954.259,-791.1422 954.259,-813.1422 1025.259,-813.1422 1025.259,-791.1422 954.259,-791.1422"/>
<polygon fill="none" stroke="#000000" points="954.259,-791.1422 954.259,-813.1422 1025.259,-813.1422 1025.259,-791.1422 954.259,-791.1422"/>
<text text-anchor="start" x="957.1026" y="-797.5422" font-family="Times,serif" font-size="14.00" fill="#000000">Description</text>
</g>
<!-- java&#45;&gt;spring -->
<g id="edge20" class="edge">
<title>java&#45;&gt;spring</title>
<path fill="none" stroke="#2b78e4" d="M839.8384,-700.4404C903.0218,-750.3815 925.9055,-768.2847 949.1669,-785.0652"/>
<polygon fill="#2b78e4" stroke="#2b78e4" points="947.3062,-788.0374 957.4771,-791.0045 951.3765,-782.3424 947.3062,-788.0374"/>
</g>
<!-- javafx -->
<g id="node22" class="node">
<title>javafx</title>
<polygon fill="#ffff00" stroke="transparent" points="839.9809,-892.0227 839.9809,-914.0227 910.9809,-914.0227 910.9809,-892.0227 839.9809,-892.0227"/>
<polygon fill="none" stroke="#000000" points="839.9809,-892.0227 839.9809,-914.0227 910.9809,-914.0227 910.9809,-892.0227 839.9809,-892.0227"/>
<text text-anchor="start" x="854.0994" y="-898.4227" font-family="Times,serif" font-size="14.00" fill="#000000">JavaFX</text>
<polygon fill="#ffffff" stroke="transparent" points="839.9809,-870.0227 839.9809,-892.0227 910.9809,-892.0227 910.9809,-870.0227 839.9809,-870.0227"/>
<polygon fill="none" stroke="#000000" points="839.9809,-870.0227 839.9809,-892.0227 910.9809,-892.0227 910.9809,-870.0227 839.9809,-870.0227"/>
<text text-anchor="start" x="842.8245" y="-876.4227" font-family="Times,serif" font-size="14.00" fill="#000000">Description</text>
</g>
<!-- java&#45;&gt;javafx -->
<g id="edge21" class="edge">
<title>java&#45;&gt;javafx</title>
<path fill="none" stroke="#2b78e4" d="M821.0316,-700.2832C861.9785,-798.042 869.6663,-818.566 873.0275,-859.7428"/>
<polygon fill="#2b78e4" stroke="#2b78e4" points="869.5414,-860.0634 873.7479,-869.7874 876.5235,-859.5626 869.5414,-860.0634"/>
</g>
<!-- django -->
<g id="node29" class="node">
<title>django</title>
<polygon fill="#ffff00" stroke="transparent" points="710.1461,-941.2625 710.1461,-963.2625 781.1461,-963.2625 781.1461,-941.2625 710.1461,-941.2625"/>
<polygon fill="none" stroke="#000000" points="710.1461,-941.2625 710.1461,-963.2625 781.1461,-963.2625 781.1461,-941.2625 710.1461,-941.2625"/>
<text text-anchor="start" x="725.0402" y="-947.6625" font-family="Times,serif" font-size="14.00" fill="#000000">Django</text>
<polygon fill="#ffffff" stroke="transparent" points="710.1461,-919.2625 710.1461,-941.2625 781.1461,-941.2625 781.1461,-919.2625 710.1461,-919.2625"/>
<polygon fill="none" stroke="#000000" points="710.1461,-919.2625 710.1461,-941.2625 781.1461,-941.2625 781.1461,-919.2625 710.1461,-919.2625"/>
<text text-anchor="start" x="712.9897" y="-925.6625" font-family="Times,serif" font-size="14.00" fill="#000000">Description</text>
</g>
<!-- python&#45;&gt;django -->
<g id="edge28" class="edge">
<title>python&#45;&gt;django</title>
<path fill="none" stroke="#2b78e4" d="M619.0462,-764.0865C670.1549,-860.1062 683.8304,-884.0402 712.8714,-912.2113"/>
<polygon fill="#2b78e4" stroke="#2b78e4" points="710.5042,-914.7899 720.1794,-919.1076 715.3085,-909.6988 710.5042,-914.7899"/>
</g>
<!-- keras -->
<g id="node30" class="node">
<title>keras</title>
<polygon fill="#ffff00" stroke="transparent" points="572.3003,-958 572.3003,-980 643.3003,-980 643.3003,-958 572.3003,-958"/>
<polygon fill="none" stroke="#000000" points="572.3003,-958 572.3003,-980 643.3003,-980 643.3003,-958 572.3003,-958"/>
<text text-anchor="start" x="591.4798" y="-964.4" font-family="Times,serif" font-size="14.00" fill="#000000">Keras</text>
<polygon fill="#ffffff" stroke="transparent" points="572.3003,-936 572.3003,-958 643.3003,-958 643.3003,-936 572.3003,-936"/>
<polygon fill="none" stroke="#000000" points="572.3003,-936 572.3003,-958 643.3003,-958 643.3003,-936 572.3003,-936"/>
<text text-anchor="start" x="575.1439" y="-942.4" font-family="Times,serif" font-size="14.00" fill="#000000">Description</text>
</g>
<!-- python&#45;&gt;keras -->
<g id="edge29" class="edge">
<title>python&#45;&gt;keras</title>
<path fill="none" stroke="#2b78e4" d="M607.3003,-764.2922C607.3003,-866.8161 607.3003,-889.9159 607.3003,-925.8691"/>
<polygon fill="#2b78e4" stroke="#2b78e4" points="603.8004,-925.8814 607.3003,-935.8814 610.8004,-925.8814 603.8004,-925.8814"/>
</g>
<!-- tensorflow -->
<g id="node31" class="node">
<title>tensorflow</title>
<polygon fill="#ffff00" stroke="transparent" points="434.4545,-941.2625 434.4545,-963.2625 505.4545,-963.2625 505.4545,-941.2625 434.4545,-941.2625"/>
<polygon fill="none" stroke="#000000" points="434.4545,-941.2625 434.4545,-963.2625 505.4545,-963.2625 505.4545,-941.2625 434.4545,-941.2625"/>
<text text-anchor="start" x="437.6894" y="-947.6625" font-family="Times,serif" font-size="14.00" fill="#000000">Tensorflow</text>
<polygon fill="#ffffff" stroke="transparent" points="434.4545,-919.2625 434.4545,-941.2625 505.4545,-941.2625 505.4545,-919.2625 434.4545,-919.2625"/>
<polygon fill="none" stroke="#000000" points="434.4545,-919.2625 434.4545,-941.2625 505.4545,-941.2625 505.4545,-919.2625 434.4545,-919.2625"/>
<text text-anchor="start" x="437.2981" y="-925.6625" font-family="Times,serif" font-size="14.00" fill="#000000">Description</text>
</g>
<!-- python&#45;&gt;tensorflow -->
<g id="edge30" class="edge">
<title>python&#45;&gt;tensorflow</title>
<path fill="none" stroke="#2b78e4" d="M595.5544,-764.0865C544.4458,-860.1062 530.7702,-884.0402 501.7293,-912.2113"/>
<polygon fill="#2b78e4" stroke="#2b78e4" points="499.2921,-909.6988 494.4213,-919.1076 504.0964,-914.7899 499.2921,-909.6988"/>
</g>
<!-- angular -->
<g id="node23" class="node">
<title>angular</title>
<g id="a_node23"><a xlink:href="https://angular.io" xlink:title="Angular">
<polygon fill="#ffff00" stroke="transparent" points="304.6198,-892.0227 304.6198,-914.0227 375.6198,-914.0227 375.6198,-892.0227 304.6198,-892.0227"/>
<polygon fill="none" stroke="#000000" points="304.6198,-892.0227 304.6198,-914.0227 375.6198,-914.0227 375.6198,-892.0227 304.6198,-892.0227"/>
<text text-anchor="start" x="317.1836" y="-898.4227" font-family="Times,serif" font-size="14.00" fill="#000000">Angular</text>
<polygon fill="#ffffff" stroke="transparent" points="304.6198,-870.0227 304.6198,-892.0227 375.6198,-892.0227 375.6198,-870.0227 304.6198,-870.0227"/>
<polygon fill="none" stroke="#000000" points="304.6198,-870.0227 304.6198,-892.0227 375.6198,-892.0227 375.6198,-870.0227 304.6198,-870.0227"/>
<text text-anchor="start" x="307.4634" y="-876.4227" font-family="Times,serif" font-size="14.00" fill="#000000">Description</text>
</a>
</g>
</g>
<!-- javascript&#45;&gt;angular -->
<g id="edge22" class="edge">
<title>javascript&#45;&gt;angular</title>
<path fill="none" stroke="#2b78e4" d="M285.5555,-571.4055C262.037,-746.3683 262.1979,-765.773 320.5619,-861.2412"/>
<polygon fill="#2b78e4" stroke="#2b78e4" points="317.5966,-863.1008 325.8142,-869.7882 323.5605,-859.4359 317.5966,-863.1008"/>
</g>
<!-- react -->
<g id="node24" class="node">
<title>react</title>
<g id="a_node24"><a xlink:href="https://reactjs.org" xlink:title="React">
<polygon fill="#ffff00" stroke="transparent" points="190.3417,-813.1422 190.3417,-835.1422 261.3417,-835.1422 261.3417,-813.1422 190.3417,-813.1422"/>
<polygon fill="none" stroke="#000000" points="190.3417,-813.1422 190.3417,-835.1422 261.3417,-835.1422 261.3417,-813.1422 190.3417,-813.1422"/>
<text text-anchor="start" x="209.9062" y="-819.5422" font-family="Times,serif" font-size="14.00" fill="#000000">React</text>
<polygon fill="#ffffff" stroke="transparent" points="190.3417,-791.1422 190.3417,-813.1422 261.3417,-813.1422 261.3417,-791.1422 190.3417,-791.1422"/>
<polygon fill="none" stroke="#000000" points="190.3417,-791.1422 190.3417,-813.1422 261.3417,-813.1422 261.3417,-791.1422 190.3417,-791.1422"/>
<text text-anchor="start" x="193.1853" y="-797.5422" font-family="Times,serif" font-size="14.00" fill="#000000">Description</text>
</a>
</g>
</g>
<!-- javascript&#45;&gt;react -->
<g id="edge23" class="edge">
<title>javascript&#45;&gt;react</title>
<path fill="none" stroke="#2b78e4" d="M277.4901,-571.3338C217.4348,-691.3135 210.8863,-709.3729 220.6165,-780.9418"/>
<polygon fill="#2b78e4" stroke="#2b78e4" points="217.1613,-781.5055 222.0222,-790.9194 224.0929,-780.5289 217.1613,-781.5055"/>
</g>
<!-- vue -->
<g id="node25" class="node">
<title>vue</title>
<g id="a_node25"><a xlink:href="https://vuejs.org" xlink:title="Vue">
<polygon fill="#ffff00" stroke="transparent" points="98.2616,-709.2053 98.2616,-731.2053 169.2616,-731.2053 169.2616,-709.2053 98.2616,-709.2053"/>
<polygon fill="none" stroke="#000000" points="98.2616,-709.2053 98.2616,-731.2053 169.2616,-731.2053 169.2616,-709.2053 98.2616,-709.2053"/>
<text text-anchor="start" x="122.101" y="-715.6053" font-family="Times,serif" font-size="14.00" fill="#000000">Vue</text>
<polygon fill="#ffffff" stroke="transparent" points="98.2616,-687.2053 98.2616,-709.2053 169.2616,-709.2053 169.2616,-687.2053 98.2616,-687.2053"/>
<polygon fill="none" stroke="#000000" points="98.2616,-687.2053 98.2616,-709.2053 169.2616,-709.2053 169.2616,-687.2053 98.2616,-687.2053"/>
<text text-anchor="start" x="101.1052" y="-693.6053" font-family="Times,serif" font-size="14.00" fill="#000000">Description</text>
</a>
</g>
</g>
<!-- javascript&#45;&gt;vue -->
<g id="edge24" class="edge">
<title>javascript&#45;&gt;vue</title>
<path fill="none" stroke="#2b78e4" d="M260.5246,-571.4914C187.6857,-629.3299 170.8164,-644.527 150.7627,-678.0005"/>
<polygon fill="#2b78e4" stroke="#2b78e4" points="147.5643,-676.538 145.5597,-686.9415 153.6145,-680.0588 147.5643,-676.538"/>
</g>
<!-- express -->
<g id="node26" class="node">
<title>express</title>
<polygon fill="#ffff00" stroke="transparent" points="33.731,-586.2524 33.731,-608.2524 104.731,-608.2524 104.731,-586.2524 33.731,-586.2524"/>
<polygon fill="none" stroke="#000000" points="33.731,-586.2524 33.731,-608.2524 104.731,-608.2524 104.731,-586.2524 33.731,-586.2524"/>
<text text-anchor="start" x="47.0725" y="-592.6524" font-family="Times,serif" font-size="14.00" fill="#000000">Express</text>
<polygon fill="#ffffff" stroke="transparent" points="33.731,-564.2524 33.731,-586.2524 104.731,-586.2524 104.731,-564.2524 33.731,-564.2524"/>
<polygon fill="none" stroke="#000000" points="33.731,-564.2524 33.731,-586.2524 104.731,-586.2524 104.731,-564.2524 33.731,-564.2524"/>
<text text-anchor="start" x="36.5746" y="-570.6524" font-family="Times,serif" font-size="14.00" fill="#000000">Description</text>
</g>
<!-- javascript&#45;&gt;express -->
<g id="edge25" class="edge">
<title>javascript&#45;&gt;express</title>
<path fill="none" stroke="#2b78e4" d="M252.9182,-555.4231C171.3288,-569.4457 143.4581,-574.2055 114.3192,-578.9464"/>
<polygon fill="#2b78e4" stroke="#2b78e4" points="113.6214,-575.5137 104.3093,-580.5669 114.7401,-582.4238 113.6214,-575.5137"/>
</g>
<!-- nestjs -->
<g id="node27" class="node">
<title>nestjs</title>
<polygon fill="#ffff00" stroke="transparent" points=".5,-451.4291 .5,-473.4291 71.5,-473.4291 71.5,-451.4291 .5,-451.4291"/>
<polygon fill="none" stroke="#000000" points=".5,-451.4291 .5,-473.4291 71.5,-473.4291 71.5,-451.4291 .5,-451.4291"/>
<text text-anchor="start" x="16.5582" y="-457.8291" font-family="Times,serif" font-size="14.00" fill="#000000">NestJS</text>
<polygon fill="#ffffff" stroke="transparent" points=".5,-429.4291 .5,-451.4291 71.5,-451.4291 71.5,-429.4291 .5,-429.4291"/>
<polygon fill="none" stroke="#000000" points=".5,-429.4291 .5,-451.4291 71.5,-451.4291 71.5,-429.4291 .5,-429.4291"/>
<text text-anchor="start" x="3.3436" y="-435.8291" font-family="Times,serif" font-size="14.00" fill="#000000">Description</text>
</g>
<!-- javascript&#45;&gt;nestjs -->
<g id="edge26" class="edge">
<title>javascript&#45;&gt;nestjs</title>
<path fill="none" stroke="#2b78e4" d="M252.9992,-539.9174C143.0288,-510.8068 113.4312,-501.8132 76.5721,-479.0407"/>
<polygon fill="#2b78e4" stroke="#2b78e4" points="78.3638,-476.0323 68.0466,-473.6227 74.6093,-481.9403 78.3638,-476.0323"/>
</g>
<!-- electron -->
<g id="node28" class="node">
<title>electron</title>
<polygon fill="#ffff00" stroke="transparent" points=".5,-312.5709 .5,-334.5709 71.5,-334.5709 71.5,-312.5709 .5,-312.5709"/>
<polygon fill="none" stroke="#000000" points=".5,-312.5709 .5,-334.5709 71.5,-334.5709 71.5,-312.5709 .5,-312.5709"/>
<text text-anchor="start" x="12.2882" y="-318.9709" font-family="Times,serif" font-size="14.00" fill="#000000">Electron</text>
<polygon fill="#ffffff" stroke="transparent" points=".5,-290.5709 .5,-312.5709 71.5,-312.5709 71.5,-290.5709 .5,-290.5709"/>
<polygon fill="none" stroke="#000000" points=".5,-290.5709 .5,-312.5709 71.5,-312.5709 71.5,-290.5709 .5,-290.5709"/>
<text text-anchor="start" x="3.3436" y="-296.9709" font-family="Times,serif" font-size="14.00" fill="#000000">Description</text>
</g>
<!-- javascript&#45;&gt;electron -->
<g id="edge27" class="edge">
<title>javascript&#45;&gt;electron</title>
<path fill="none" stroke="#2b78e4" d="M254.6625,-527.1642C111.0966,-433.1899 92.4681,-417.7407 52.0266,-343.5234"/>
<polygon fill="#2b78e4" stroke="#2b78e4" points="55.0777,-341.8074 47.2452,-334.6728 48.919,-345.1346 55.0777,-341.8074"/>
</g>
<!-- android -->
<g id="node32" class="node">
<title>android</title>
<polygon fill="#ffff00" stroke="transparent" points="33.731,-177.7476 33.731,-199.7476 104.731,-199.7476 104.731,-177.7476 33.731,-177.7476"/>
<polygon fill="none" stroke="#000000" points="33.731,-177.7476 33.731,-199.7476 104.731,-199.7476 104.731,-177.7476 33.731,-177.7476"/>
<text text-anchor="start" x="45.9021" y="-184.1476" font-family="Times,serif" font-size="14.00" fill="#000000">Android</text>
<polygon fill="#ffffff" stroke="transparent" points="33.731,-155.7476 33.731,-177.7476 104.731,-177.7476 104.731,-155.7476 33.731,-155.7476"/>
<polygon fill="none" stroke="#000000" points="33.731,-155.7476 33.731,-177.7476 104.731,-177.7476 104.731,-155.7476 33.731,-155.7476"/>
<text text-anchor="start" x="36.5746" y="-162.1476" font-family="Times,serif" font-size="14.00" fill="#000000">Description</text>
</g>
<!-- kotlin&#45;&gt;android -->
<g id="edge31" class="edge">
<title>kotlin&#45;&gt;android</title>
<path fill="none" stroke="#2b78e4" d="M235.1243,-238.5274C165.9281,-207.8127 140.8869,-197.2122 114.044,-189.2967"/>
<polygon fill="#2b78e4" stroke="#2b78e4" points="114.9733,-185.9223 104.3989,-186.5803 113.0756,-192.6602 114.9733,-185.9223"/>
</g>
</g>
</svg>
