<?xml version="1.0" encoding="UTF-8" standalone="no"?>
<!DOCTYPE svg PUBLIC "-//W3C//DTD SVG 1.1//EN"
 "http://www.w3.org/Graphics/SVG/1.1/DTD/svg11.dtd">
<!-- Generated by graphviz version 2.40.1 (20161225.0304)
 -->
<!-- Title: Programming Pages: 1 -->
<svg width="979pt" height="899pt"
 viewBox="0.00 0.00 979.34 898.87" xmlns="http://www.w3.org/2000/svg" xmlns:xlink="http://www.w3.org/1999/xlink">
<g id="graph0" class="graph" transform="scale(1 1) rotate(0) translate(4 894.866)">
<title>Programming</title>
<polygon fill="#ffffff" stroke="transparent" points="-4,4 -4,-894.866 975.342,-894.866 975.342,4 -4,4"/>
<!-- root -->
<g id="node1" class="node">
<title>root</title>
<ellipse fill="none" stroke="#000000" cx="460.5187" cy="-420.5385" rx="116.8455" ry="116.8455"/>
<text text-anchor="middle" x="460.5187" y="-413.0385" font-family="Times,serif" font-size="30.00" fill="#000000">Programming</text>
</g>
<!-- cpp -->
<g id="node2" class="node">
<title>cpp</title>
<g id="a_node2"><a xlink:href="https://isocpp.org/" xlink:title="C++">
<polygon fill="#ffff00" stroke="transparent" points="703.2684,-436.3439 703.2684,-457.3439 891.2684,-457.3439 891.2684,-436.3439 703.2684,-436.3439"/>
<polygon fill="none" stroke="#000000" points="703.2684,-436.3439 703.2684,-457.3439 891.2684,-457.3439 891.2684,-436.3439 703.2684,-436.3439"/>
<text text-anchor="start" x="784.2684" y="-443.1439" font-family="Times,serif" font-size="14.00" fill="#000000">C++</text>
<polygon fill="#ffffff" stroke="transparent" points="703.2684,-397.3439 703.2684,-436.3439 891.2684,-436.3439 891.2684,-397.3439 703.2684,-397.3439"/>
<polygon fill="none" stroke="#000000" points="703.2684,-397.3439 703.2684,-436.3439 891.2684,-436.3439 891.2684,-397.3439 703.2684,-397.3439"/>
<text text-anchor="start" x="706.2684" y="-425.3439" font-family="Times,serif" font-size="10.00" fill="#000000">General&#45;purpose language, well&#45;suited for</text>
<text text-anchor="start" x="706.2684" y="-414.3439" font-family="Times,serif" font-size="10.00" fill="#000000">system programming, embedded systems,</text>
<text text-anchor="start" x="706.2684" y="-403.3439" font-family="Times,serif" font-size="10.00" fill="#000000">desktop applications and computer graphics.</text>
</a>
</g>
</g>
<!-- root&#45;&gt;cpp -->
<g id="edge1" class="edge">
<title>root&#45;&gt;cpp</title>
<path fill="none" stroke="#2b78e4" stroke-width="3" d="M577.4524,-417.3936C631.8681,-416.1045 665.3268,-415.8189 692.854,-416.8403"/>
<polygon fill="#2b78e4" stroke="#2b78e4" stroke-width="3" points="692.9997,-420.3501 703.1449,-417.2964 693.3097,-413.357 692.9997,-420.3501"/>
</g>
<!-- java -->
<g id="node3" class="node">
<title>java</title>
<g id="a_node3"><a xlink:href="https://developer.oracle.com/java/" xlink:title="Java">
<polygon fill="#ffff00" stroke="transparent" points="690.7865,-662.8354 690.7865,-683.8354 868.7865,-683.8354 868.7865,-662.8354 690.7865,-662.8354"/>
<polygon fill="none" stroke="#000000" points="690.7865,-662.8354 690.7865,-683.8354 868.7865,-683.8354 868.7865,-662.8354 690.7865,-662.8354"/>
<text text-anchor="start" x="767.2865" y="-669.6354" font-family="Times,serif" font-size="14.00" fill="#000000">Java</text>
<polygon fill="#ffffff" stroke="transparent" points="690.7865,-634.8354 690.7865,-662.8354 868.7865,-662.8354 868.7865,-634.8354 690.7865,-634.8354"/>
<polygon fill="none" stroke="#000000" points="690.7865,-634.8354 690.7865,-662.8354 868.7865,-662.8354 868.7865,-634.8354 690.7865,-634.8354"/>
<text text-anchor="start" x="693.7865" y="-651.8354" font-family="Times,serif" font-size="10.00" fill="#000000">Language for cross&#45;platform development,</text>
<text text-anchor="start" x="693.7865" y="-640.8354" font-family="Times,serif" font-size="10.00" fill="#000000">popular for client&#45;server web applications.</text>
</a>
</g>
</g>
<!-- root&#45;&gt;java -->
<g id="edge2" class="edge">
<title>root&#45;&gt;java</title>
<path fill="none" stroke="#2b78e4" stroke-width="3" d="M554.9145,-490.0782C662.2082,-569.1746 691.4339,-591.0865 740.0704,-628.8762"/>
<polygon fill="#2b78e4" stroke="#2b78e4" stroke-width="3" points="738.0155,-631.712 748.0578,-635.0888 742.3131,-626.1866 738.0155,-631.712"/>
</g>
<!-- python -->
<g id="node4" class="node">
<title>python</title>
<g id="a_node4"><a xlink:href="https://www.python.org/" xlink:title="Python">
<polygon fill="#ffff00" stroke="transparent" points="513.5543,-797.0984 513.5543,-818.0984 680.5543,-818.0984 680.5543,-797.0984 513.5543,-797.0984"/>
<polygon fill="none" stroke="#000000" points="513.5543,-797.0984 513.5543,-818.0984 680.5543,-818.0984 680.5543,-797.0984 513.5543,-797.0984"/>
<text text-anchor="start" x="577.5543" y="-803.8984" font-family="Times,serif" font-size="14.00" fill="#000000">Python</text>
<polygon fill="#ffffff" stroke="transparent" points="513.5543,-758.0984 513.5543,-797.0984 680.5543,-797.0984 680.5543,-758.0984 513.5543,-758.0984"/>
<polygon fill="none" stroke="#000000" points="513.5543,-758.0984 513.5543,-797.0984 680.5543,-797.0984 680.5543,-758.0984 513.5543,-758.0984"/>
<text text-anchor="start" x="516.5543" y="-786.0984" font-family="Times,serif" font-size="10.00" fill="#000000">Interpreted language used for</text>
<text text-anchor="start" x="516.5543" y="-775.0984" font-family="Times,serif" font-size="10.00" fill="#000000">web applications, scientific computing,</text>
<text text-anchor="start" x="516.5543" y="-764.0984" font-family="Times,serif" font-size="10.00" fill="#000000">machine learning and data science.</text>
</a>
</g>
</g>
<!-- root&#45;&gt;python -->
<g id="edge3" class="edge">
<title>root&#45;&gt;python</title>
<path fill="none" stroke="#2b78e4" stroke-width="3" d="M498.2412,-531.0628C541.6626,-657.8384 553.4933,-689.3779 579.209,-748.5531"/>
<polygon fill="#2b78e4" stroke="#2b78e4" stroke-width="3" points="576.08,-750.1339 583.2853,-757.9014 582.4965,-747.336 576.08,-750.1339"/>
</g>
<!-- javascript -->
<g id="node5" class="node">
<title>javascript</title>
<g id="a_node5"><a xlink:href="https://wikipedia.org/wiki/JavaScript" xlink:title="JavaScript">
<polygon fill="#ffff00" stroke="transparent" points="201.0278,-748.3835 201.0278,-769.3835 354.0278,-769.3835 354.0278,-748.3835 201.0278,-748.3835"/>
<polygon fill="none" stroke="#000000" points="201.0278,-748.3835 201.0278,-769.3835 354.0278,-769.3835 354.0278,-748.3835 201.0278,-748.3835"/>
<text text-anchor="start" x="249.0278" y="-755.1835" font-family="Times,serif" font-size="14.00" fill="#000000">JavaScript</text>
<polygon fill="#ffffff" stroke="transparent" points="201.0278,-709.3835 201.0278,-748.3835 354.0278,-748.3835 354.0278,-709.3835 201.0278,-709.3835"/>
<polygon fill="none" stroke="#000000" points="201.0278,-709.3835 201.0278,-748.3835 354.0278,-748.3835 354.0278,-709.3835 201.0278,-709.3835"/>
<text text-anchor="start" x="204.0278" y="-737.3835" font-family="Times,serif" font-size="10.00" fill="#000000">Interpreted language used for</text>
<text text-anchor="start" x="204.0278" y="-726.3835" font-family="Times,serif" font-size="10.00" fill="#000000">frontend and backend development,</text>
<text text-anchor="start" x="204.0278" y="-715.3835" font-family="Times,serif" font-size="10.00" fill="#000000">desktop and mobile applications.</text>
</a>
</g>
</g>
<!-- root&#45;&gt;javascript -->
<g id="edge4" class="edge">
<title>root&#45;&gt;javascript</title>
<path fill="none" stroke="#2b78e4" stroke-width="3" d="M396.7068,-518.7401C332.7832,-617.7199 317.0884,-645.72 293.7012,-699.9125"/>
<polygon fill="#2b78e4" stroke="#2b78e4" stroke-width="3" points="290.4331,-698.653 289.7141,-709.2234 296.868,-701.4086 290.4331,-698.653"/>
</g>
<!-- kotlin -->
<g id="node6" class="node">
<title>kotlin</title>
<g id="a_node6"><a xlink:href="https://kotlinlang.org/" xlink:title="Kotlin">
<polygon fill="#ffff00" stroke="transparent" points="103.0815,-597.9669 103.0815,-618.9669 269.0815,-618.9669 269.0815,-597.9669 103.0815,-597.9669"/>
<polygon fill="none" stroke="#000000" points="103.0815,-597.9669 103.0815,-618.9669 269.0815,-618.9669 269.0815,-597.9669 103.0815,-597.9669"/>
<text text-anchor="start" x="168.5815" y="-604.7669" font-family="Times,serif" font-size="14.00" fill="#000000">Kotlin</text>
<polygon fill="#ffffff" stroke="transparent" points="103.0815,-558.9669 103.0815,-597.9669 269.0815,-597.9669 269.0815,-558.9669 103.0815,-558.9669"/>
<polygon fill="none" stroke="#000000" points="103.0815,-558.9669 103.0815,-597.9669 269.0815,-597.9669 269.0815,-558.9669 103.0815,-558.9669"/>
<text text-anchor="start" x="106.0815" y="-586.9669" font-family="Times,serif" font-size="10.00" fill="#000000">Cross&#45;platform language designed</text>
<text text-anchor="start" x="106.0815" y="-575.9669" font-family="Times,serif" font-size="10.00" fill="#000000">to interoperate fully with Java, used for</text>
<text text-anchor="start" x="106.0815" y="-564.9669" font-family="Times,serif" font-size="10.00" fill="#000000">client&#45;server and mobile applications.</text>
</a>
</g>
</g>
<!-- root&#45;&gt;kotlin -->
<g id="edge5" class="edge">
<title>root&#45;&gt;kotlin</title>
<path fill="none" stroke="#2b78e4" stroke-width="3" d="M357.7454,-476.0094C289.4169,-513.2759 262.2672,-529.7293 231.9235,-552.6023"/>
<polygon fill="#2b78e4" stroke="#2b78e4" stroke-width="3" points="229.4969,-550.0518 223.6806,-558.9074 233.7498,-555.6118 229.4969,-550.0518"/>
</g>
<!-- csharp -->
<g id="node7" class="node">
<title>csharp</title>
<g id="a_node7"><a xlink:href="https://docs.microsoft.com/dotnet/csharp/" xlink:title="C#">
<polygon fill="#ffff00" stroke="transparent" points="91.93,-472.4008 91.93,-493.4008 205.93,-493.4008 205.93,-472.4008 91.93,-472.4008"/>
<polygon fill="none" stroke="#000000" points="91.93,-472.4008 91.93,-493.4008 205.93,-493.4008 205.93,-472.4008 91.93,-472.4008"/>
<text text-anchor="start" x="140.93" y="-479.2008" font-family="Times,serif" font-size="14.00" fill="#000000">C#</text>
<polygon fill="#ffffff" stroke="transparent" points="91.93,-433.4008 91.93,-472.4008 205.93,-472.4008 205.93,-433.4008 91.93,-433.4008"/>
<polygon fill="none" stroke="#000000" points="91.93,-433.4008 91.93,-472.4008 205.93,-472.4008 205.93,-433.4008 91.93,-433.4008"/>
<text text-anchor="start" x="94.93" y="-461.4008" font-family="Times,serif" font-size="10.00" fill="#000000">General&#45;purpose language</text>
<text text-anchor="start" x="94.93" y="-450.4008" font-family="Times,serif" font-size="10.00" fill="#000000">suitable for web, desktop</text>
<text text-anchor="start" x="94.93" y="-439.4008" font-family="Times,serif" font-size="10.00" fill="#000000">and mobile development.</text>
</a>
</g>
</g>
<!-- root&#45;&gt;csharp -->
<g id="edge6" class="edge">
<title>root&#45;&gt;csharp</title>
<path fill="none" stroke="#2b78e4" stroke-width="3" d="M344.3307,-431.4362C278.6912,-437.8344 247.2989,-441.7729 216.1338,-447.9314"/>
<polygon fill="#2b78e4" stroke="#2b78e4" stroke-width="3" points="215.0725,-444.5762 205.9801,-450.0149 216.4796,-451.4333 215.0725,-444.5762"/>
</g>
<!-- rust -->
<g id="node8" class="node">
<title>rust</title>
<g id="a_node8"><a xlink:href="https://www.rust-lang.org/" xlink:title="Rust">
<polygon fill="#ffff00" stroke="transparent" points="0,-352.1004 0,-373.1004 172,-373.1004 172,-352.1004 0,-352.1004"/>
<polygon fill="none" stroke="#000000" points="0,-352.1004 0,-373.1004 172,-373.1004 172,-352.1004 0,-352.1004"/>
<text text-anchor="start" x="73.5" y="-358.9004" font-family="Times,serif" font-size="14.00" fill="#000000">Rust</text>
<polygon fill="#ffffff" stroke="transparent" points="0,-313.1004 0,-352.1004 172,-352.1004 172,-313.1004 0,-313.1004"/>
<polygon fill="none" stroke="#000000" points="0,-313.1004 0,-352.1004 172,-352.1004 172,-313.1004 0,-313.1004"/>
<text text-anchor="start" x="3" y="-341.1004" font-family="Times,serif" font-size="10.00" fill="#000000">Language that is focused on safety and</text>
<text text-anchor="start" x="3" y="-330.1004" font-family="Times,serif" font-size="10.00" fill="#000000">performance, used for desktop and server</text>
<text text-anchor="start" x="3" y="-319.1004" font-family="Times,serif" font-size="10.00" fill="#000000">applications and embedded systems.</text>
</a>
</g>
</g>
<!-- root&#45;&gt;rust -->
<g id="edge7" class="edge">
<title>root&#45;&gt;rust</title>
<path fill="none" stroke="#2b78e4" stroke-width="3" d="M346.8366,-394.1189C261.9773,-374.4964 219.8455,-365.191 182.2618,-358.3085"/>
<polygon fill="#2b78e4" stroke="#2b78e4" stroke-width="3" points="182.7288,-354.8365 172.2679,-356.5158 181.4928,-361.7265 182.7288,-354.8365"/>
</g>
<!-- haskell -->
<g id="node9" class="node">
<title>haskell</title>
<g id="a_node9"><a xlink:href="https://www.haskell.org/" xlink:title="Haskell">
<polygon fill="#ffff00" stroke="transparent" points="15.9045,-258.9653 15.9045,-279.9653 164.9045,-279.9653 164.9045,-258.9653 15.9045,-258.9653"/>
<polygon fill="none" stroke="#000000" points="15.9045,-258.9653 15.9045,-279.9653 164.9045,-279.9653 164.9045,-258.9653 15.9045,-258.9653"/>
<text text-anchor="start" x="69.4045" y="-265.7653" font-family="Times,serif" font-size="14.00" fill="#000000">Haskell</text>
<polygon fill="#ffffff" stroke="transparent" points="15.9045,-208.9653 15.9045,-258.9653 164.9045,-258.9653 164.9045,-208.9653 15.9045,-208.9653"/>
<polygon fill="none" stroke="#000000" points="15.9045,-208.9653 15.9045,-258.9653 164.9045,-258.9653 164.9045,-208.9653 15.9045,-208.9653"/>
<text text-anchor="start" x="18.9045" y="-247.9653" font-family="Times,serif" font-size="10.00" fill="#000000">Purely functional programming</text>
<text text-anchor="start" x="18.9045" y="-236.9653" font-family="Times,serif" font-size="10.00" fill="#000000">language suitable for teaching,</text>
<text text-anchor="start" x="18.9045" y="-225.9653" font-family="Times,serif" font-size="10.00" fill="#000000">research and industrial application,</text>
<text text-anchor="start" x="18.9045" y="-214.9653" font-family="Times,serif" font-size="10.00" fill="#000000">mostly network and web software.</text>
</a>
</g>
</g>
<!-- root&#45;&gt;haskell -->
<g id="edge8" class="edge">
<title>root&#45;&gt;haskell</title>
<path fill="none" stroke="#2b78e4" stroke-width="3" d="M355.5851,-369.0372C257.6564,-321.0359 215.3874,-300.6521 173.7993,-281.8404"/>
<polygon fill="#2b78e4" stroke="#2b78e4" stroke-width="3" points="175.1893,-278.6279 164.6339,-277.7146 172.3159,-285.011 175.1893,-278.6279"/>
</g>
<!-- php -->
<g id="node10" class="node">
<title>php</title>
<g id="a_node10"><a xlink:href="https://www.php.net/" xlink:title="PHP">
<polygon fill="#ffff00" stroke="transparent" points="129.4655,-180.4139 129.4655,-201.4139 255.4655,-201.4139 255.4655,-180.4139 129.4655,-180.4139"/>
<polygon fill="none" stroke="#000000" points="129.4655,-180.4139 129.4655,-201.4139 255.4655,-201.4139 255.4655,-180.4139 129.4655,-180.4139"/>
<text text-anchor="start" x="179.9655" y="-187.2139" font-family="Times,serif" font-size="14.00" fill="#000000">PHP</text>
<polygon fill="#ffffff" stroke="transparent" points="129.4655,-141.4139 129.4655,-180.4139 255.4655,-180.4139 255.4655,-141.4139 129.4655,-141.4139"/>
<polygon fill="none" stroke="#000000" points="129.4655,-141.4139 129.4655,-180.4139 255.4655,-180.4139 255.4655,-141.4139 129.4655,-141.4139"/>
<text text-anchor="start" x="132.4655" y="-169.4139" font-family="Times,serif" font-size="10.00" fill="#000000">Interpreted programming</text>
<text text-anchor="start" x="132.4655" y="-158.4139" font-family="Times,serif" font-size="10.00" fill="#000000">language originally designed</text>
<text text-anchor="start" x="132.4655" y="-147.4139" font-family="Times,serif" font-size="10.00" fill="#000000">for web development.</text>
</a>
</g>
</g>
<!-- root&#45;&gt;php -->
<g id="edge9" class="edge">
<title>root&#45;&gt;php</title>
<path fill="none" stroke="#2b78e4" stroke-width="3" d="M374.9754,-340.808C295.5445,-266.7855 269.5191,-242.5935 232.6679,-208.5366"/>
<polygon fill="#2b78e4" stroke="#2b78e4" stroke-width="3" points="234.8543,-205.7915 225.1343,-201.576 230.104,-210.9329 234.8543,-205.7915"/>
</g>
<!-- swift -->
<g id="node11" class="node">
<title>swift</title>
<g id="a_node11"><a xlink:href="https://swift.org/" xlink:title="Swift">
<polygon fill="#ffff00" stroke="transparent" points="249.7121,-111.8528 249.7121,-132.8528 374.7121,-132.8528 374.7121,-111.8528 249.7121,-111.8528"/>
<polygon fill="none" stroke="#000000" points="249.7121,-111.8528 249.7121,-132.8528 374.7121,-132.8528 374.7121,-111.8528 249.7121,-111.8528"/>
<text text-anchor="start" x="297.2121" y="-118.6528" font-family="Times,serif" font-size="14.00" fill="#000000">Swift</text>
<polygon fill="#ffffff" stroke="transparent" points="249.7121,-61.8528 249.7121,-111.8528 374.7121,-111.8528 374.7121,-61.8528 249.7121,-61.8528"/>
<polygon fill="none" stroke="#000000" points="249.7121,-61.8528 249.7121,-111.8528 374.7121,-111.8528 374.7121,-61.8528 249.7121,-61.8528"/>
<text text-anchor="start" x="252.7121" y="-100.8528" font-family="Times,serif" font-size="10.00" fill="#000000">General&#45;purpose compiled</text>
<text text-anchor="start" x="252.7121" y="-89.8528" font-family="Times,serif" font-size="10.00" fill="#000000">language for desktop and</text>
<text text-anchor="start" x="252.7121" y="-78.8528" font-family="Times,serif" font-size="10.00" fill="#000000">mobile development for</text>
<text text-anchor="start" x="252.7121" y="-67.8528" font-family="Times,serif" font-size="10.00" fill="#000000">Apple devices (iOS, macOS).</text>
</a>
</g>
</g>
<!-- root&#45;&gt;swift -->
<g id="edge10" class="edge">
<title>root&#45;&gt;swift</title>
<path fill="none" stroke="#2b78e4" stroke-width="3" d="M409.7958,-315.1429C363.9498,-219.6526 350.1023,-189.5454 330.4088,-142.7564"/>
<polygon fill="#2b78e4" stroke="#2b78e4" stroke-width="3" points="333.6136,-141.348 326.5182,-133.48 327.1584,-144.0555 333.6136,-141.348"/>
</g>
<!-- go -->
<g id="node12" class="node">
<title>go</title>
<g id="a_node12"><a xlink:href="https://golang.org/" xlink:title="Go">
<polygon fill="#ffff00" stroke="transparent" points="382.7755,-61 382.7755,-82 499.7755,-82 499.7755,-61 382.7755,-61"/>
<polygon fill="none" stroke="#000000" points="382.7755,-61 382.7755,-82 499.7755,-82 499.7755,-61 382.7755,-61"/>
<text text-anchor="start" x="432.7755" y="-67.8" font-family="Times,serif" font-size="14.00" fill="#000000">Go</text>
<polygon fill="#ffffff" stroke="transparent" points="382.7755,0 382.7755,-61 499.7755,-61 499.7755,0 382.7755,0"/>
<polygon fill="none" stroke="#000000" points="382.7755,0 382.7755,-61 499.7755,-61 499.7755,0 382.7755,0"/>
<text text-anchor="start" x="385.7755" y="-50" font-family="Times,serif" font-size="10.00" fill="#000000">General&#45;purpose compiled</text>
<text text-anchor="start" x="385.7755" y="-39" font-family="Times,serif" font-size="10.00" fill="#000000">language focused on safety</text>
<text text-anchor="start" x="385.7755" y="-28" font-family="Times,serif" font-size="10.00" fill="#000000">and concurrency, used for</text>
<text text-anchor="start" x="385.7755" y="-17" font-family="Times,serif" font-size="10.00" fill="#000000">network and system</text>
<text text-anchor="start" x="385.7755" y="-6" font-family="Times,serif" font-size="10.00" fill="#000000">applications.</text>
</a>
</g>
</g>
<!-- root&#45;&gt;go -->
<g id="edge11" class="edge">
<title>root&#45;&gt;go</title>
<path fill="none" stroke="#2b78e4" stroke-width="3" d="M450.8666,-304.1954C441.0779,-184.1359 439.2373,-148.6365 439.8607,-92.2722"/>
<polygon fill="#2b78e4" stroke="#2b78e4" stroke-width="3" points="443.3605,-92.3053 439.9926,-82.26 436.3611,-92.213 443.3605,-92.3053"/>
</g>
<!-- r -->
<g id="node13" class="node">
<title>r</title>
<polygon fill="#ffff00" stroke="transparent" points="507.3088,-60.0958 507.3088,-81.0958 577.3088,-81.0958 577.3088,-60.0958 507.3088,-60.0958"/>
<polygon fill="none" stroke="#000000" points="507.3088,-60.0958 507.3088,-81.0958 577.3088,-81.0958 577.3088,-60.0958 507.3088,-60.0958"/>
<text text-anchor="start" x="537.3088" y="-66.8958" font-family="Times,serif" font-size="14.00" fill="#000000">R</text>
<polygon fill="#ffffff" stroke="transparent" points="507.3088,-39.0958 507.3088,-60.0958 577.3088,-60.0958 577.3088,-39.0958 507.3088,-39.0958"/>
<polygon fill="none" stroke="#000000" points="507.3088,-39.0958 507.3088,-60.0958 577.3088,-60.0958 577.3088,-39.0958 507.3088,-39.0958"/>
<text text-anchor="start" x="510.3088" y="-45.8958" font-family="Times,serif" font-size="14.00" fill="#000000">Description</text>
</g>
<!-- root&#45;&gt;r -->
<g id="edge12" class="edge">
<title>root&#45;&gt;r</title>
<path fill="none" stroke="#2b78e4" stroke-width="3" d="M481.6734,-305.6513C504.8019,-181.4898 511.7395,-153.5322 532.235,-90.6796"/>
<polygon fill="#2b78e4" stroke="#2b78e4" stroke-width="3" points="535.5738,-91.7301 535.3608,-81.1374 528.9216,-89.5509 535.5738,-91.7301"/>
</g>
<!-- julia -->
<g id="node14" class="node">
<title>julia</title>
<polygon fill="#ffff00" stroke="transparent" points="585.3573,-91.3038 585.3573,-112.3038 655.3573,-112.3038 655.3573,-91.3038 585.3573,-91.3038"/>
<polygon fill="none" stroke="#000000" points="585.3573,-91.3038 585.3573,-112.3038 655.3573,-112.3038 655.3573,-91.3038 585.3573,-91.3038"/>
<text text-anchor="start" x="607.3573" y="-98.1038" font-family="Times,serif" font-size="14.00" fill="#000000">Julia</text>
<polygon fill="#ffffff" stroke="transparent" points="585.3573,-70.3038 585.3573,-91.3038 655.3573,-91.3038 655.3573,-70.3038 585.3573,-70.3038"/>
<polygon fill="none" stroke="#000000" points="585.3573,-70.3038 585.3573,-91.3038 655.3573,-91.3038 655.3573,-70.3038 585.3573,-70.3038"/>
<text text-anchor="start" x="588.3573" y="-77.1038" font-family="Times,serif" font-size="14.00" fill="#000000">Description</text>
</g>
<!-- root&#45;&gt;julia -->
<g id="edge13" class="edge">
<title>root&#45;&gt;julia</title>
<path fill="none" stroke="#2b78e4" stroke-width="3" d="M506.5822,-312.8592C554.7015,-201.1506 568.1622,-174.7453 601.5992,-121.1066"/>
<polygon fill="#2b78e4" stroke="#2b78e4" stroke-width="3" points="604.5751,-122.9489 606.914,-112.6155 598.6416,-119.235 604.5751,-122.9489"/>
</g>
<!-- scala -->
<g id="node15" class="node">
<title>scala</title>
<polygon fill="#ffff00" stroke="transparent" points="663.4331,-139.0487 663.4331,-160.0487 733.4331,-160.0487 733.4331,-139.0487 663.4331,-139.0487"/>
<polygon fill="none" stroke="#000000" points="663.4331,-139.0487 663.4331,-160.0487 733.4331,-160.0487 733.4331,-139.0487 663.4331,-139.0487"/>
<text text-anchor="start" x="683.4331" y="-145.8487" font-family="Times,serif" font-size="14.00" fill="#000000">Scala</text>
<polygon fill="#ffffff" stroke="transparent" points="663.4331,-118.0487 663.4331,-139.0487 733.4331,-139.0487 733.4331,-118.0487 663.4331,-118.0487"/>
<polygon fill="none" stroke="#000000" points="663.4331,-118.0487 663.4331,-139.0487 733.4331,-139.0487 733.4331,-118.0487 663.4331,-118.0487"/>
<text text-anchor="start" x="666.4331" y="-124.8487" font-family="Times,serif" font-size="14.00" fill="#000000">Description</text>
</g>
<!-- root&#45;&gt;scala -->
<g id="edge14" class="edge">
<title>root&#45;&gt;scala</title>
<path fill="none" stroke="#2b78e4" stroke-width="3" d="M531.1911,-327.4842C603.7415,-232.485 624.5,-208.5445 668.2143,-167.2247"/>
<polygon fill="#2b78e4" stroke="#2b78e4" stroke-width="3" points="670.8537,-169.5471 675.7414,-160.147 666.0585,-164.4475 670.8537,-169.5471"/>
</g>
<!-- clojure -->
<g id="node16" class="node">
<title>clojure</title>
<polygon fill="#ffff00" stroke="transparent" points="720.4394,-189.0498 720.4394,-210.0498 790.4394,-210.0498 790.4394,-189.0498 720.4394,-189.0498"/>
<polygon fill="none" stroke="#000000" points="720.4394,-189.0498 720.4394,-210.0498 790.4394,-210.0498 790.4394,-189.0498 720.4394,-189.0498"/>
<text text-anchor="start" x="734.9394" y="-195.8498" font-family="Times,serif" font-size="14.00" fill="#000000">Clojure</text>
<polygon fill="#ffffff" stroke="transparent" points="720.4394,-168.0498 720.4394,-189.0498 790.4394,-189.0498 790.4394,-168.0498 720.4394,-168.0498"/>
<polygon fill="none" stroke="#000000" points="720.4394,-168.0498 720.4394,-189.0498 790.4394,-189.0498 790.4394,-168.0498 720.4394,-168.0498"/>
<text text-anchor="start" x="723.4394" y="-174.8498" font-family="Times,serif" font-size="14.00" fill="#000000">Description</text>
</g>
<!-- root&#45;&gt;clojure -->
<g id="edge15" class="edge">
<title>root&#45;&gt;clojure</title>
<path fill="none" stroke="#2b78e4" stroke-width="3" d="M548.3999,-343.6855C636.8405,-266.7441 664.3463,-245.2174 711.8894,-215.5492"/>
<polygon fill="#2b78e4" stroke="#2b78e4" stroke-width="3" points="714.0265,-218.3426 720.6872,-210.1034 710.3422,-212.3906 714.0265,-218.3426"/>
</g>
<!-- ocaml -->
<g id="node17" class="node">
<title>ocaml</title>
<polygon fill="#ffff00" stroke="transparent" points="761.2166,-239.0863 761.2166,-260.0863 831.2166,-260.0863 831.2166,-239.0863 761.2166,-239.0863"/>
<polygon fill="none" stroke="#000000" points="761.2166,-239.0863 761.2166,-260.0863 831.2166,-260.0863 831.2166,-239.0863 761.2166,-239.0863"/>
<text text-anchor="start" x="776.2166" y="-245.8863" font-family="Times,serif" font-size="14.00" fill="#000000">OCaml</text>
<polygon fill="#ffffff" stroke="transparent" points="761.2166,-218.0863 761.2166,-239.0863 831.2166,-239.0863 831.2166,-218.0863 761.2166,-218.0863"/>
<polygon fill="none" stroke="#000000" points="761.2166,-218.0863 761.2166,-239.0863 831.2166,-239.0863 831.2166,-218.0863 761.2166,-218.0863"/>
<text text-anchor="start" x="764.2166" y="-224.8863" font-family="Times,serif" font-size="14.00" fill="#000000">Description</text>
</g>
<!-- root&#45;&gt;ocaml -->
<g id="edge16" class="edge">
<title>root&#45;&gt;ocaml</title>
<path fill="none" stroke="#2b78e4" stroke-width="3" d="M560.1449,-359.7973C665.8981,-295.6658 696.3396,-279.3784 751.5177,-256.8567"/>
<polygon fill="#2b78e4" stroke="#2b78e4" stroke-width="3" points="753.023,-260.0233 760.9802,-253.0281 750.3975,-253.5344 753.023,-260.0233"/>
</g>
<!-- ruby -->
<g id="node18" class="node">
<title>ruby</title>
<polygon fill="#ffff00" stroke="transparent" points="787.2912,-289.1025 787.2912,-310.1025 857.2912,-310.1025 857.2912,-289.1025 787.2912,-289.1025"/>
<polygon fill="none" stroke="#000000" points="787.2912,-289.1025 787.2912,-310.1025 857.2912,-310.1025 857.2912,-289.1025 787.2912,-289.1025"/>
<text text-anchor="start" x="807.2912" y="-295.9025" font-family="Times,serif" font-size="14.00" fill="#000000">Ruby</text>
<polygon fill="#ffffff" stroke="transparent" points="787.2912,-268.1025 787.2912,-289.1025 857.2912,-289.1025 857.2912,-268.1025 787.2912,-268.1025"/>
<polygon fill="none" stroke="#000000" points="787.2912,-268.1025 787.2912,-289.1025 857.2912,-289.1025 857.2912,-268.1025 787.2912,-268.1025"/>
<text text-anchor="start" x="790.2912" y="-274.9025" font-family="Times,serif" font-size="14.00" fill="#000000">Description</text>
</g>
<!-- root&#45;&gt;ruby -->
<g id="edge17" class="edge">
<title>root&#45;&gt;ruby</title>
<path fill="none" stroke="#2b78e4" stroke-width="3" d="M568.2597,-375.1721C685.241,-326.2242 717.4836,-314.7206 777.0757,-299.9384"/>
<polygon fill="#2b78e4" stroke="#2b78e4" stroke-width="3" points="778.013,-303.3123 786.8918,-297.5316 776.346,-296.5137 778.013,-303.3123"/>
</g>
<!-- qt -->
<g id="node19" class="node">
<title>qt</title>
<polygon fill="#ffff00" stroke="transparent" points="757.661,-353.4414 757.661,-374.4414 827.661,-374.4414 827.661,-353.4414 757.661,-353.4414"/>
<polygon fill="none" stroke="#000000" points="757.661,-353.4414 757.661,-374.4414 827.661,-374.4414 827.661,-353.4414 757.661,-353.4414"/>
<text text-anchor="start" x="785.661" y="-360.2414" font-family="Times,serif" font-size="14.00" fill="#000000">Qt</text>
<polygon fill="#ffffff" stroke="transparent" points="757.661,-332.4414 757.661,-353.4414 827.661,-353.4414 827.661,-332.4414 757.661,-332.4414"/>
<polygon fill="none" stroke="#000000" points="757.661,-332.4414 757.661,-353.4414 827.661,-353.4414 827.661,-332.4414 757.661,-332.4414"/>
<text text-anchor="start" x="760.661" y="-339.2414" font-family="Times,serif" font-size="14.00" fill="#000000">Description</text>
</g>
<!-- cpp&#45;&gt;qt -->
<g id="edge18" class="edge">
<title>cpp&#45;&gt;qt</title>
<path fill="none" stroke="#000000" stroke-width="3" d="M805.464,-397.0873C806.6636,-388.9448 805.7487,-382.8662 802.4459,-374.4652"/>
</g>
<!-- boost -->
<g id="node20" class="node">
<title>boost</title>
<polygon fill="#ffff00" stroke="transparent" points="901.342,-424.3683 901.342,-445.3683 971.342,-445.3683 971.342,-424.3683 901.342,-424.3683"/>
<polygon fill="none" stroke="#000000" points="901.342,-424.3683 901.342,-445.3683 971.342,-445.3683 971.342,-424.3683 901.342,-424.3683"/>
<text text-anchor="start" x="921.342" y="-431.1683" font-family="Times,serif" font-size="14.00" fill="#000000">boost</text>
<polygon fill="#ffffff" stroke="transparent" points="901.342,-403.3683 901.342,-424.3683 971.342,-424.3683 971.342,-403.3683 901.342,-403.3683"/>
<polygon fill="none" stroke="#000000" points="901.342,-403.3683 901.342,-424.3683 971.342,-424.3683 971.342,-403.3683 901.342,-403.3683"/>
<text text-anchor="start" x="904.342" y="-410.1683" font-family="Times,serif" font-size="14.00" fill="#000000">Description</text>
</g>
<!-- cpp&#45;&gt;boost -->
<g id="edge19" class="edge">
<title>cpp&#45;&gt;boost</title>
<path fill="none" stroke="#000000" stroke-width="3" d="M891.5991,-424.7049C895.0255,-424.6384 898.2081,-424.5862 901.3053,-424.5448"/>
</g>
<!-- unreal -->
<g id="node21" class="node">
<title>unreal</title>
<polygon fill="#ffff00" stroke="transparent" points="741.0301,-512.956 741.0301,-533.956 826.0301,-533.956 826.0301,-512.956 741.0301,-512.956"/>
<polygon fill="none" stroke="#000000" points="741.0301,-512.956 741.0301,-533.956 826.0301,-533.956 826.0301,-512.956 741.0301,-512.956"/>
<text text-anchor="start" x="744.0301" y="-519.756" font-family="Times,serif" font-size="14.00" fill="#000000">Unreal Engine</text>
<polygon fill="#ffffff" stroke="transparent" points="741.0301,-491.956 741.0301,-512.956 826.0301,-512.956 826.0301,-491.956 741.0301,-491.956"/>
<polygon fill="none" stroke="#000000" points="741.0301,-491.956 741.0301,-512.956 826.0301,-512.956 826.0301,-491.956 741.0301,-491.956"/>
<text text-anchor="start" x="751.5301" y="-498.756" font-family="Times,serif" font-size="14.00" fill="#000000">Description</text>
</g>
<!-- cpp&#45;&gt;unreal -->
<g id="edge20" class="edge">
<title>cpp&#45;&gt;unreal</title>
<path fill="none" stroke="#000000" stroke-width="3" d="M803.3048,-457.5675C804.666,-470.0356 802.531,-478.0418 795.208,-491.7596"/>
</g>
<!-- spring -->
<g id="node22" class="node">
<title>spring</title>
<polygon fill="#ffff00" stroke="transparent" points="780.3244,-590.3956 780.3244,-611.3956 850.3244,-611.3956 850.3244,-590.3956 780.3244,-590.3956"/>
<polygon fill="none" stroke="#000000" points="780.3244,-590.3956 780.3244,-611.3956 850.3244,-611.3956 850.3244,-590.3956 780.3244,-590.3956"/>
<text text-anchor="start" x="796.8244" y="-597.1956" font-family="Times,serif" font-size="14.00" fill="#000000">Spring</text>
<polygon fill="#ffffff" stroke="transparent" points="780.3244,-569.3956 780.3244,-590.3956 850.3244,-590.3956 850.3244,-569.3956 780.3244,-569.3956"/>
<polygon fill="none" stroke="#000000" points="780.3244,-569.3956 780.3244,-590.3956 850.3244,-590.3956 850.3244,-569.3956 780.3244,-569.3956"/>
<text text-anchor="start" x="783.3244" y="-576.1956" font-family="Times,serif" font-size="14.00" fill="#000000">Description</text>
</g>
<!-- java&#45;&gt;spring -->
<g id="edge21" class="edge">
<title>java&#45;&gt;spring</title>
<path fill="none" stroke="#000000" stroke-width="3" d="M805.0814,-635.3037C809.492,-628.9459 811.4523,-622.319 812.9828,-611.4749"/>
</g>
<!-- javafx -->
<g id="node23" class="node">
<title>javafx</title>
<polygon fill="#ffff00" stroke="transparent" points="702.1149,-731.3363 702.1149,-752.3363 772.1149,-752.3363 772.1149,-731.3363 702.1149,-731.3363"/>
<polygon fill="none" stroke="#000000" points="702.1149,-731.3363 702.1149,-752.3363 772.1149,-752.3363 772.1149,-731.3363 702.1149,-731.3363"/>
<text text-anchor="start" x="716.1149" y="-738.1363" font-family="Times,serif" font-size="14.00" fill="#000000">JavaFX</text>
<polygon fill="#ffffff" stroke="transparent" points="702.1149,-710.3363 702.1149,-731.3363 772.1149,-731.3363 772.1149,-710.3363 702.1149,-710.3363"/>
<polygon fill="none" stroke="#000000" points="702.1149,-710.3363 702.1149,-731.3363 772.1149,-731.3363 772.1149,-710.3363 702.1149,-710.3363"/>
<text text-anchor="start" x="705.1149" y="-717.1363" font-family="Times,serif" font-size="14.00" fill="#000000">Description</text>
</g>
<!-- java&#45;&gt;javafx -->
<g id="edge22" class="edge">
<title>java&#45;&gt;javafx</title>
<path fill="none" stroke="#000000" stroke-width="3" d="M774.6937,-684.6836C771.8177,-696.7131 768.8976,-703.6529 763.1439,-710.1768"/>
</g>
<!-- django -->
<g id="node30" class="node">
<title>django</title>
<polygon fill="#ffff00" stroke="transparent" points="623.087,-724.3866 623.087,-745.3866 693.087,-745.3866 693.087,-724.3866 623.087,-724.3866"/>
<polygon fill="none" stroke="#000000" points="623.087,-724.3866 623.087,-745.3866 693.087,-745.3866 693.087,-724.3866 623.087,-724.3866"/>
<text text-anchor="start" x="638.087" y="-731.1866" font-family="Times,serif" font-size="14.00" fill="#000000">Django</text>
<polygon fill="#ffffff" stroke="transparent" points="623.087,-703.3866 623.087,-724.3866 693.087,-724.3866 693.087,-703.3866 623.087,-703.3866"/>
<polygon fill="none" stroke="#000000" points="623.087,-703.3866 623.087,-724.3866 693.087,-724.3866 693.087,-703.3866 623.087,-703.3866"/>
<text text-anchor="start" x="626.087" y="-710.1866" font-family="Times,serif" font-size="14.00" fill="#000000">Description</text>
</g>
<!-- python&#45;&gt;django -->
<g id="edge29" class="edge">
<title>python&#45;&gt;django</title>
<path fill="none" stroke="#000000" stroke-width="3" d="M640.596,-758.0925C642.7931,-754.571 645.0677,-750.4394 647.6251,-745.4851"/>
</g>
<!-- keras -->
<g id="node31" class="node">
<title>keras</title>
<polygon fill="#ffff00" stroke="transparent" points="558.2774,-869.866 558.2774,-890.866 628.2774,-890.866 628.2774,-869.866 558.2774,-869.866"/>
<polygon fill="none" stroke="#000000" points="558.2774,-869.866 558.2774,-890.866 628.2774,-890.866 628.2774,-869.866 558.2774,-869.866"/>
<text text-anchor="start" x="577.2774" y="-876.666" font-family="Times,serif" font-size="14.00" fill="#000000">Keras</text>
<polygon fill="#ffffff" stroke="transparent" points="558.2774,-848.866 558.2774,-869.866 628.2774,-869.866 628.2774,-848.866 558.2774,-848.866"/>
<polygon fill="none" stroke="#000000" points="558.2774,-848.866 558.2774,-869.866 628.2774,-869.866 628.2774,-848.866 558.2774,-848.866"/>
<text text-anchor="start" x="561.2774" y="-855.666" font-family="Times,serif" font-size="14.00" fill="#000000">Description</text>
</g>
<!-- python&#45;&gt;keras -->
<g id="edge30" class="edge">
<title>python&#45;&gt;keras</title>
<path fill="none" stroke="#000000" stroke-width="3" d="M597.9953,-818.4027C598.5885,-833.2628 598.554,-841.377 597.6507,-848.7616"/>
</g>
<!-- tensorflow -->
<g id="node32" class="node">
<title>tensorflow</title>
<polygon fill="#ffff00" stroke="transparent" points="433.2953,-749.169 433.2953,-770.169 503.2953,-770.169 503.2953,-749.169 433.2953,-749.169"/>
<polygon fill="none" stroke="#000000" points="433.2953,-749.169 433.2953,-770.169 503.2953,-770.169 503.2953,-749.169 433.2953,-749.169"/>
<text text-anchor="start" x="436.7953" y="-755.969" font-family="Times,serif" font-size="14.00" fill="#000000">Tensorflow</text>
<polygon fill="#ffffff" stroke="transparent" points="433.2953,-728.169 433.2953,-749.169 503.2953,-749.169 503.2953,-728.169 433.2953,-728.169"/>
<polygon fill="none" stroke="#000000" points="433.2953,-728.169 433.2953,-749.169 503.2953,-749.169 503.2953,-728.169 433.2953,-728.169"/>
<text text-anchor="start" x="436.2953" y="-734.969" font-family="Times,serif" font-size="14.00" fill="#000000">Description</text>
</g>
<!-- python&#45;&gt;tensorflow -->
<g id="edge31" class="edge">
<title>python&#45;&gt;tensorflow</title>
<path fill="none" stroke="#000000" stroke-width="3" d="M512.8332,-778.1993C508.8598,-775.9007 504.571,-773.2513 499.8374,-770.212"/>
</g>
<!-- angular -->
<g id="node24" class="node">
<title>angular</title>
<g id="a_node24"><a xlink:href="https://angular.io" xlink:title="Angular">
<polygon fill="#ffff00" stroke="transparent" points="325.4532,-680.337 325.4532,-701.337 395.4532,-701.337 395.4532,-680.337 325.4532,-680.337"/>
<polygon fill="none" stroke="#000000" points="325.4532,-680.337 325.4532,-701.337 395.4532,-701.337 395.4532,-680.337 325.4532,-680.337"/>
<text text-anchor="start" x="337.9532" y="-687.137" font-family="Times,serif" font-size="14.00" fill="#000000">Angular</text>
<polygon fill="#ffffff" stroke="transparent" points="325.4532,-659.337 325.4532,-680.337 395.4532,-680.337 395.4532,-659.337 325.4532,-659.337"/>
<polygon fill="none" stroke="#000000" points="325.4532,-659.337 325.4532,-680.337 395.4532,-680.337 395.4532,-659.337 325.4532,-659.337"/>
<text text-anchor="start" x="328.4532" y="-666.137" font-family="Times,serif" font-size="14.00" fill="#000000">Description</text>
</a>
</g>
</g>
<!-- javascript&#45;&gt;angular -->
<g id="edge23" class="edge">
<title>javascript&#45;&gt;angular</title>
<path fill="none" stroke="#000000" stroke-width="3" d="M327.7368,-709.1407C330.418,-706.8532 333.335,-704.324 336.5455,-701.5124"/>
</g>
<!-- react -->
<g id="node25" class="node">
<title>react</title>
<g id="a_node25"><a xlink:href="https://reactjs.org" xlink:title="React">
<polygon fill="#ffff00" stroke="transparent" points="355.2164,-798.4098 355.2164,-819.4098 425.2164,-819.4098 425.2164,-798.4098 355.2164,-798.4098"/>
<polygon fill="none" stroke="#000000" points="355.2164,-798.4098 355.2164,-819.4098 425.2164,-819.4098 425.2164,-798.4098 355.2164,-798.4098"/>
<text text-anchor="start" x="374.7164" y="-805.2098" font-family="Times,serif" font-size="14.00" fill="#000000">React</text>
<polygon fill="#ffffff" stroke="transparent" points="355.2164,-777.4098 355.2164,-798.4098 425.2164,-798.4098 425.2164,-777.4098 355.2164,-777.4098"/>
<polygon fill="none" stroke="#000000" points="355.2164,-777.4098 355.2164,-798.4098 425.2164,-798.4098 425.2164,-777.4098 355.2164,-777.4098"/>
<text text-anchor="start" x="358.2164" y="-784.2098" font-family="Times,serif" font-size="14.00" fill="#000000">Description</text>
</a>
</g>
</g>
<!-- javascript&#45;&gt;react -->
<g id="edge24" class="edge">
<title>javascript&#45;&gt;react</title>
<path fill="none" stroke="#000000" stroke-width="3" d="M304.1696,-769.5505C320.3799,-785.8774 331.3975,-791.1406 354.9396,-794.5792"/>
</g>
<!-- vue -->
<g id="node26" class="node">
<title>vue</title>
<g id="a_node26"><a xlink:href="https://vuejs.org" xlink:title="Vue">
<polygon fill="#ffff00" stroke="transparent" points="279.0944,-848.4407 279.0944,-869.4407 349.0944,-869.4407 349.0944,-848.4407 279.0944,-848.4407"/>
<polygon fill="none" stroke="#000000" points="279.0944,-848.4407 279.0944,-869.4407 349.0944,-869.4407 349.0944,-848.4407 279.0944,-848.4407"/>
<text text-anchor="start" x="302.5944" y="-855.2407" font-family="Times,serif" font-size="14.00" fill="#000000">Vue</text>
<polygon fill="#ffffff" stroke="transparent" points="279.0944,-827.4407 279.0944,-848.4407 349.0944,-848.4407 349.0944,-827.4407 279.0944,-827.4407"/>
<polygon fill="none" stroke="#000000" points="279.0944,-827.4407 279.0944,-848.4407 349.0944,-848.4407 349.0944,-827.4407 279.0944,-827.4407"/>
<text text-anchor="start" x="282.0944" y="-834.2407" font-family="Times,serif" font-size="14.00" fill="#000000">Description</text>
</a>
</g>
</g>
<!-- javascript&#45;&gt;vue -->
<g id="edge25" class="edge">
<title>javascript&#45;&gt;vue</title>
<path fill="none" stroke="#000000" stroke-width="3" d="M280.1713,-769.6805C283.7154,-801.1875 286.6989,-812.996 296.5543,-826.9744"/>
</g>
<!-- express -->
<g id="node27" class="node">
<title>express</title>
<polygon fill="#ffff00" stroke="transparent" points="167.2041,-798.444 167.2041,-819.444 237.2041,-819.444 237.2041,-798.444 167.2041,-798.444"/>
<polygon fill="none" stroke="#000000" points="167.2041,-798.444 167.2041,-819.444 237.2041,-819.444 237.2041,-798.444 167.2041,-798.444"/>
<text text-anchor="start" x="180.7041" y="-805.244" font-family="Times,serif" font-size="14.00" fill="#000000">Express</text>
<polygon fill="#ffffff" stroke="transparent" points="167.2041,-777.444 167.2041,-798.444 237.2041,-798.444 237.2041,-777.444 167.2041,-777.444"/>
<polygon fill="none" stroke="#000000" points="167.2041,-777.444 167.2041,-798.444 237.2041,-798.444 237.2041,-777.444 167.2041,-777.444"/>
<text text-anchor="start" x="170.2041" y="-784.244" font-family="Times,serif" font-size="14.00" fill="#000000">Description</text>
</g>
<!-- javascript&#45;&gt;express -->
<g id="edge26" class="edge">
<title>javascript&#45;&gt;express</title>
<path fill="none" stroke="#000000" stroke-width="3" d="M243.7983,-769.4662C240.3997,-772.4576 237.4456,-774.9951 234.7703,-777.2094"/>
</g>
<!-- nestjs -->
<g id="node28" class="node">
<title>nestjs</title>
<polygon fill="#ffff00" stroke="transparent" points="122.5093,-680.6666 122.5093,-701.6666 192.5093,-701.6666 192.5093,-680.6666 122.5093,-680.6666"/>
<polygon fill="none" stroke="#000000" points="122.5093,-680.6666 122.5093,-701.6666 192.5093,-701.6666 192.5093,-680.6666 122.5093,-680.6666"/>
<text text-anchor="start" x="138.5093" y="-687.4666" font-family="Times,serif" font-size="14.00" fill="#000000">NestJS</text>
<polygon fill="#ffffff" stroke="transparent" points="122.5093,-659.6666 122.5093,-680.6666 192.5093,-680.6666 192.5093,-659.6666 122.5093,-659.6666"/>
<polygon fill="none" stroke="#000000" points="122.5093,-659.6666 122.5093,-680.6666 192.5093,-680.6666 192.5093,-659.6666 122.5093,-659.6666"/>
<text text-anchor="start" x="125.5093" y="-666.4666" font-family="Times,serif" font-size="14.00" fill="#000000">Description</text>
</g>
<!-- javascript&#45;&gt;nestjs -->
<g id="edge27" class="edge">
<title>javascript&#45;&gt;nestjs</title>
<path fill="none" stroke="#000000" stroke-width="3" d="M200.2946,-722.615C191.8539,-717.9553 184.7205,-711.5334 175.889,-701.8726"/>
</g>
<!-- electron -->
<g id="node29" class="node">
<title>electron</title>
<polygon fill="#ffff00" stroke="transparent" points="243.0754,-650.9064 243.0754,-671.9064 313.0754,-671.9064 313.0754,-650.9064 243.0754,-650.9064"/>
<polygon fill="none" stroke="#000000" points="243.0754,-650.9064 243.0754,-671.9064 313.0754,-671.9064 313.0754,-650.9064 243.0754,-650.9064"/>
<text text-anchor="start" x="255.0754" y="-657.7064" font-family="Times,serif" font-size="14.00" fill="#000000">Electron</text>
<polygon fill="#ffffff" stroke="transparent" points="243.0754,-629.9064 243.0754,-650.9064 313.0754,-650.9064 313.0754,-629.9064 243.0754,-629.9064"/>
<polygon fill="none" stroke="#000000" points="243.0754,-629.9064 243.0754,-650.9064 313.0754,-650.9064 313.0754,-629.9064 243.0754,-629.9064"/>
<text text-anchor="start" x="246.0754" y="-636.7064" font-family="Times,serif" font-size="14.00" fill="#000000">Description</text>
</g>
<!-- javascript&#45;&gt;electron -->
<g id="edge28" class="edge">
<title>javascript&#45;&gt;electron</title>
<path fill="none" stroke="#000000" stroke-width="3" d="M269.1376,-709.3503C268.6523,-700.5898 270.1719,-690.394 273.775,-672.1197"/>
</g>
<!-- android -->
<g id="node33" class="node">
<title>android</title>
<polygon fill="#ffff00" stroke="transparent" points="44.3032,-648.024 44.3032,-669.024 114.3032,-669.024 114.3032,-648.024 44.3032,-648.024"/>
<polygon fill="none" stroke="#000000" points="44.3032,-648.024 44.3032,-669.024 114.3032,-669.024 114.3032,-648.024 44.3032,-648.024"/>
<text text-anchor="start" x="56.3032" y="-654.824" font-family="Times,serif" font-size="14.00" fill="#000000">Android</text>
<polygon fill="#ffffff" stroke="transparent" points="44.3032,-627.024 44.3032,-648.024 114.3032,-648.024 114.3032,-627.024 44.3032,-627.024"/>
<polygon fill="none" stroke="#000000" points="44.3032,-627.024 44.3032,-648.024 114.3032,-648.024 114.3032,-627.024 44.3032,-627.024"/>
<text text-anchor="start" x="47.3032" y="-633.824" font-family="Times,serif" font-size="14.00" fill="#000000">Description</text>
</g>
<!-- kotlin&#45;&gt;android -->
<g id="edge32" class="edge">
<title>kotlin&#45;&gt;android</title>
<path fill="none" stroke="#000000" stroke-width="3" d="M129.9431,-619.075C123.8195,-622.3915 118.8162,-625.1292 114.3876,-627.5899"/>
</g>
<!-- xamarin -->
<g id="node34" class="node">
<title>xamarin</title>
<polygon fill="#ffff00" stroke="transparent" points="13.459,-477.1774 13.459,-498.1774 83.459,-498.1774 83.459,-477.1774 13.459,-477.1774"/>
<polygon fill="none" stroke="#000000" points="13.459,-477.1774 13.459,-498.1774 83.459,-498.1774 83.459,-477.1774 13.459,-477.1774"/>
<text text-anchor="start" x="23.959" y="-483.9774" font-family="Times,serif" font-size="14.00" fill="#000000">Xamarin</text>
<polygon fill="#ffffff" stroke="transparent" points="13.459,-456.1774 13.459,-477.1774 83.459,-477.1774 83.459,-456.1774 13.459,-456.1774"/>
<polygon fill="none" stroke="#000000" points="13.459,-456.1774 13.459,-477.1774 83.459,-477.1774 83.459,-456.1774 13.459,-456.1774"/>
<text text-anchor="start" x="16.459" y="-462.9774" font-family="Times,serif" font-size="14.00" fill="#000000">Description</text>
</g>
<!-- csharp&#45;&gt;xamarin -->
<g id="edge33" class="edge">
<title>csharp&#45;&gt;xamarin</title>
<path fill="none" stroke="#000000" stroke-width="3" d="M91.8988,-470.1601C88.9118,-470.5401 86.2213,-470.8938 83.7308,-471.2344"/>
</g>
<!-- laravel -->
<g id="node35" class="node">
<title>laravel</title>
<polygon fill="#ffff00" stroke="transparent" points="113.3094,-112.2588 113.3094,-133.2588 183.3094,-133.2588 183.3094,-112.2588 113.3094,-112.2588"/>
<polygon fill="none" stroke="#000000" points="113.3094,-112.2588 113.3094,-133.2588 183.3094,-133.2588 183.3094,-112.2588 113.3094,-112.2588"/>
<text text-anchor="start" x="127.3094" y="-119.0588" font-family="Times,serif" font-size="14.00" fill="#000000">Laravel</text>
<polygon fill="#ffffff" stroke="transparent" points="113.3094,-91.2588 113.3094,-112.2588 183.3094,-112.2588 183.3094,-91.2588 113.3094,-91.2588"/>
<polygon fill="none" stroke="#000000" points="113.3094,-91.2588 113.3094,-112.2588 183.3094,-112.2588 183.3094,-91.2588 113.3094,-91.2588"/>
<text text-anchor="start" x="116.3094" y="-98.0588" font-family="Times,serif" font-size="14.00" fill="#000000">Description</text>
</g>
<!-- php&#45;&gt;laravel -->
<g id="edge34" class="edge">
<title>php&#45;&gt;laravel</title>
<path fill="none" stroke="#000000" stroke-width="3" d="M167.8222,-141.1671C165.4354,-138.1499 163.4806,-135.6088 161.7765,-133.3007"/>
</g>
<!-- ios -->
<g id="node36" class="node">
<title>ios</title>
<polygon fill="#ffff00" stroke="transparent" points="287.2814,-23.9558 287.2814,-44.9558 357.2814,-44.9558 357.2814,-23.9558 287.2814,-23.9558"/>
<polygon fill="none" stroke="#000000" points="287.2814,-23.9558 287.2814,-44.9558 357.2814,-44.9558 357.2814,-23.9558 287.2814,-23.9558"/>
<text text-anchor="start" x="311.2814" y="-30.7558" font-family="Times,serif" font-size="14.00" fill="#000000">iOS</text>
<polygon fill="#ffffff" stroke="transparent" points="287.2814,-2.9558 287.2814,-23.9558 357.2814,-23.9558 357.2814,-2.9558 287.2814,-2.9558"/>
<polygon fill="none" stroke="#000000" points="287.2814,-2.9558 287.2814,-23.9558 357.2814,-23.9558 357.2814,-2.9558 287.2814,-2.9558"/>
<text text-anchor="start" x="290.2814" y="-9.7558" font-family="Times,serif" font-size="14.00" fill="#000000">Description</text>
</g>
<!-- swift&#45;&gt;ios -->
<g id="edge35" class="edge">
<title>swift&#45;&gt;ios</title>
<path fill="none" stroke="#000000" stroke-width="3" d="M311.6039,-62.0611C311.8492,-54.7728 312.431,-49.6517 313.5941,-44.9852"/>
</g>
</g>
</svg>
