<?xml version="1.0" encoding="UTF-8" standalone="no"?>
<!DOCTYPE svg PUBLIC "-//W3C//DTD SVG 1.1//EN"
 "http://www.w3.org/Graphics/SVG/1.1/DTD/svg11.dtd">
<!-- Generated by graphviz version 2.40.1 (20161225.0304)
 -->
<!-- Title: Programming Pages: 1 -->
<svg width="1583pt" height="1510pt"
 viewBox="0.00 0.00 1583.09 1509.80" xmlns="http://www.w3.org/2000/svg" xmlns:xlink="http://www.w3.org/1999/xlink">
<g id="graph0" class="graph" transform="scale(1 1) rotate(0) translate(4 1505.8004)">
<title>Programming</title>
<polygon fill="#ffffff" stroke="transparent" points="-4,4 -4,-1505.8004 1579.0934,-1505.8004 1579.0934,4 -4,4"/>
<!-- root -->
<g id="node1" class="node">
<title>root</title>
<ellipse fill="none" stroke="#000000" cx="735.4992" cy="-710.6127" rx="116.8158" ry="116.8158"/>
<text text-anchor="middle" x="735.4992" y="-701.6127" font-family="Times,serif" font-size="30.00" fill="#000000">Programming</text>
</g>
<!-- cpp -->
<g id="node2" class="node">
<title>cpp</title>
<g id="a_node2"><a xlink:href="https://isocpp.org/" xlink:title="C++">
<polygon fill="#ffff00" stroke="transparent" points="1276.1401,-720.6127 1276.1401,-742.6127 1460.1401,-742.6127 1460.1401,-720.6127 1276.1401,-720.6127"/>
<polygon fill="none" stroke="#000000" points="1276.1401,-720.6127 1276.1401,-742.6127 1460.1401,-742.6127 1460.1401,-720.6127 1276.1401,-720.6127"/>
<text text-anchor="start" x="1355.5772" y="-727.0127" font-family="Times,serif" font-size="14.00" fill="#000000">C++</text>
<polygon fill="#ffffff" stroke="transparent" points="1276.1401,-678.6127 1276.1401,-720.6127 1460.1401,-720.6127 1460.1401,-678.6127 1276.1401,-678.6127"/>
<polygon fill="none" stroke="#000000" points="1276.1401,-678.6127 1276.1401,-720.6127 1460.1401,-720.6127 1460.1401,-678.6127 1276.1401,-678.6127"/>
<text text-anchor="start" x="1279.1401" y="-708.6127" font-family="Times,serif" font-size="10.00" fill="#000000">General&#45;purpose language, well&#45;suited for</text>
<text text-anchor="start" x="1279.1401" y="-696.6127" font-family="Times,serif" font-size="10.00" fill="#000000">system programming, embedded systems,</text>
<text text-anchor="start" x="1279.1401" y="-684.6127" font-family="Times,serif" font-size="10.00" fill="#000000">desktop applications and computer graphics.</text>
</a>
</g>
</g>
<!-- root&#45;&gt;cpp -->
<g id="edge1" class="edge">
<title>root&#45;&gt;cpp</title>
<path fill="none" stroke="#2b78e4" stroke-width="3" d="M852.2478,-705.5943C1101.6567,-694.9979 1170.3144,-693.4733 1265.8183,-701.0204"/>
<polygon fill="#2b78e4" stroke="#2b78e4" stroke-width="3" points="1265.8165,-704.5318 1276.0678,-701.8558 1266.3852,-697.5549 1265.8165,-704.5318"/>
</g>
<!-- java -->
<g id="node3" class="node">
<title>java</title>
<g id="a_node3"><a xlink:href="https://developer.oracle.com/java/" xlink:title="Java">
<polygon fill="#ffff00" stroke="transparent" points="1129.0093,-1124.9571 1129.0093,-1146.9571 1306.0093,-1146.9571 1306.0093,-1124.9571 1129.0093,-1124.9571"/>
<polygon fill="none" stroke="#000000" points="1129.0093,-1124.9571 1129.0093,-1146.9571 1306.0093,-1146.9571 1306.0093,-1124.9571 1129.0093,-1124.9571"/>
<text text-anchor="start" x="1205.0724" y="-1131.3571" font-family="Times,serif" font-size="14.00" fill="#000000">Java</text>
<polygon fill="#ffffff" stroke="transparent" points="1129.0093,-1094.9571 1129.0093,-1124.9571 1306.0093,-1124.9571 1306.0093,-1094.9571 1129.0093,-1094.9571"/>
<polygon fill="none" stroke="#000000" points="1129.0093,-1094.9571 1129.0093,-1124.9571 1306.0093,-1124.9571 1306.0093,-1094.9571 1129.0093,-1094.9571"/>
<text text-anchor="start" x="1132.0093" y="-1112.9571" font-family="Times,serif" font-size="10.00" fill="#000000">Language for cross&#45;platform development,</text>
<text text-anchor="start" x="1132.0093" y="-1100.9571" font-family="Times,serif" font-size="10.00" fill="#000000">popular for client&#45;server web applications.</text>
</a>
</g>
</g>
<!-- root&#45;&gt;java -->
<g id="edge2" class="edge">
<title>root&#45;&gt;java</title>
<path fill="none" stroke="#2b78e4" stroke-width="3" d="M824.3785,-786.8965C1046.019,-977.1114 1080.149,-1006.1979 1178.0944,-1088.3367"/>
<polygon fill="#2b78e4" stroke="#2b78e4" stroke-width="3" points="1175.9722,-1091.1249 1185.8838,-1094.8682 1180.4699,-1085.761 1175.9722,-1091.1249"/>
</g>
<!-- python -->
<g id="node4" class="node">
<title>python</title>
<g id="a_node4"><a xlink:href="https://www.python.org/" xlink:title="Python">
<polygon fill="#ffff00" stroke="transparent" points="781.3828,-1340.399 781.3828,-1362.399 943.3828,-1362.399 943.3828,-1340.399 781.3828,-1340.399"/>
<polygon fill="none" stroke="#000000" points="781.3828,-1340.399 781.3828,-1362.399 943.3828,-1362.399 943.3828,-1340.399 781.3828,-1340.399"/>
<text text-anchor="start" x="842.5462" y="-1346.799" font-family="Times,serif" font-size="14.00" fill="#000000">Python</text>
<polygon fill="#ffffff" stroke="transparent" points="781.3828,-1298.399 781.3828,-1340.399 943.3828,-1340.399 943.3828,-1298.399 781.3828,-1298.399"/>
<polygon fill="none" stroke="#000000" points="781.3828,-1298.399 781.3828,-1340.399 943.3828,-1340.399 943.3828,-1298.399 781.3828,-1298.399"/>
<text text-anchor="start" x="784.3828" y="-1328.399" font-family="Times,serif" font-size="10.00" fill="#000000">Interpreted language used for</text>
<text text-anchor="start" x="784.3828" y="-1316.399" font-family="Times,serif" font-size="10.00" fill="#000000">web applications, scientific computing,</text>
<text text-anchor="start" x="784.3828" y="-1304.399" font-family="Times,serif" font-size="10.00" fill="#000000">machine learning and data science.</text>
</a>
</g>
</g>
<!-- root&#45;&gt;python -->
<g id="edge3" class="edge">
<title>root&#45;&gt;python</title>
<path fill="none" stroke="#2b78e4" stroke-width="3" d="M753.7182,-826.0086C800.1755,-1119.2591 808.6184,-1159.2722 849.155,-1288.5037"/>
<polygon fill="#2b78e4" stroke="#2b78e4" stroke-width="3" points="845.9215,-1289.8889 852.2597,-1298.3788 852.5993,-1287.7894 845.9215,-1289.8889"/>
</g>
<!-- javascript -->
<g id="node5" class="node">
<title>javascript</title>
<g id="a_node5"><a xlink:href="https://wikipedia.org/wiki/JavaScript" xlink:title="JavaScript">
<polygon fill="#ffff00" stroke="transparent" points="392.5863,-1293.256 392.5863,-1315.256 541.5863,-1315.256 541.5863,-1293.256 392.5863,-1293.256"/>
<polygon fill="none" stroke="#000000" points="392.5863,-1293.256 392.5863,-1315.256 541.5863,-1315.256 541.5863,-1293.256 392.5863,-1293.256"/>
<text text-anchor="start" x="437.9299" y="-1299.656" font-family="Times,serif" font-size="14.00" fill="#000000">JavaScript</text>
<polygon fill="#ffffff" stroke="transparent" points="392.5863,-1251.256 392.5863,-1293.256 541.5863,-1293.256 541.5863,-1251.256 392.5863,-1251.256"/>
<polygon fill="none" stroke="#000000" points="392.5863,-1251.256 392.5863,-1293.256 541.5863,-1293.256 541.5863,-1251.256 392.5863,-1251.256"/>
<text text-anchor="start" x="395.5863" y="-1281.256" font-family="Times,serif" font-size="10.00" fill="#000000">Interpreted language used for</text>
<text text-anchor="start" x="395.5863" y="-1269.256" font-family="Times,serif" font-size="10.00" fill="#000000">frontend and backend development,</text>
<text text-anchor="start" x="395.5863" y="-1257.256" font-family="Times,serif" font-size="10.00" fill="#000000">desktop and mobile applications.</text>
</a>
</g>
</g>
<!-- root&#45;&gt;javascript -->
<g id="edge4" class="edge">
<title>root&#45;&gt;javascript</title>
<path fill="none" stroke="#2b78e4" stroke-width="3" d="M679.4978,-813.4934C538.0747,-1073.7359 521.087,-1110.7381 479.7448,-1241.3441"/>
<polygon fill="#2b78e4" stroke="#2b78e4" stroke-width="3" points="476.3967,-1240.3241 476.7241,-1250.9139 483.072,-1242.4313 476.3967,-1240.3241"/>
</g>
<!-- kotlin -->
<g id="node6" class="node">
<title>kotlin</title>
<g id="a_node6"><a xlink:href="https://kotlinlang.org/" xlink:title="Kotlin">
<polygon fill="#ffff00" stroke="transparent" points="168.355,-1035.3634 168.355,-1057.3634 331.355,-1057.3634 331.355,-1035.3634 168.355,-1035.3634"/>
<polygon fill="none" stroke="#000000" points="168.355,-1035.3634 168.355,-1057.3634 331.355,-1057.3634 331.355,-1035.3634 168.355,-1035.3634"/>
<text text-anchor="start" x="231.9658" y="-1041.7634" font-family="Times,serif" font-size="14.00" fill="#000000">Kotlin</text>
<polygon fill="#ffffff" stroke="transparent" points="168.355,-993.3634 168.355,-1035.3634 331.355,-1035.3634 331.355,-993.3634 168.355,-993.3634"/>
<polygon fill="none" stroke="#000000" points="168.355,-993.3634 168.355,-1035.3634 331.355,-1035.3634 331.355,-993.3634 168.355,-993.3634"/>
<text text-anchor="start" x="171.355" y="-1023.3634" font-family="Times,serif" font-size="10.00" fill="#000000">Cross&#45;platform language designed</text>
<text text-anchor="start" x="171.355" y="-1011.3634" font-family="Times,serif" font-size="10.00" fill="#000000">to interoperate fully with Java, used for</text>
<text text-anchor="start" x="171.355" y="-999.3634" font-family="Times,serif" font-size="10.00" fill="#000000">client&#45;server and mobile applications.</text>
</a>
</g>
</g>
<!-- root&#45;&gt;kotlin -->
<g id="edge5" class="edge">
<title>root&#45;&gt;kotlin</title>
<path fill="none" stroke="#2b78e4" stroke-width="3" d="M634.0083,-768.5584C418.6033,-891.7753 378.6211,-917.2772 295.0599,-986.8555"/>
<polygon fill="#2b78e4" stroke="#2b78e4" stroke-width="3" points="292.8,-984.1827 287.3688,-993.2797 297.2875,-989.5551 292.8,-984.1827"/>
</g>
<!-- csharp -->
<g id="node7" class="node">
<title>csharp</title>
<g id="a_node7"><a xlink:href="https://docs.microsoft.com/dotnet/csharp/" xlink:title="C#">
<polygon fill="#ffff00" stroke="transparent" points="106.3954,-796.8297 106.3954,-818.8297 217.3954,-818.8297 217.3954,-796.8297 106.3954,-796.8297"/>
<polygon fill="none" stroke="#000000" points="106.3954,-796.8297 106.3954,-818.8297 217.3954,-818.8297 217.3954,-796.8297 106.3954,-796.8297"/>
<text text-anchor="start" x="153.7271" y="-803.2297" font-family="Times,serif" font-size="14.00" fill="#000000">C#</text>
<polygon fill="#ffffff" stroke="transparent" points="106.3954,-754.8297 106.3954,-796.8297 217.3954,-796.8297 217.3954,-754.8297 106.3954,-754.8297"/>
<polygon fill="none" stroke="#000000" points="106.3954,-754.8297 106.3954,-796.8297 217.3954,-796.8297 217.3954,-754.8297 106.3954,-754.8297"/>
<text text-anchor="start" x="109.3954" y="-784.8297" font-family="Times,serif" font-size="10.00" fill="#000000">General&#45;purpose language</text>
<text text-anchor="start" x="109.3954" y="-772.8297" font-family="Times,serif" font-size="10.00" fill="#000000">suitable for web, desktop</text>
<text text-anchor="start" x="109.3954" y="-760.8297" font-family="Times,serif" font-size="10.00" fill="#000000">and mobile development.</text>
</a>
</g>
</g>
<!-- root&#45;&gt;csharp -->
<g id="edge6" class="edge">
<title>root&#45;&gt;csharp</title>
<path fill="none" stroke="#2b78e4" stroke-width="3" d="M618.9009,-721.4549C377.5593,-744.0358 326.7723,-750.3223 226.9361,-772.1236"/>
<polygon fill="#2b78e4" stroke="#2b78e4" stroke-width="3" points="226.1286,-768.7174 217.1133,-774.2829 227.6316,-775.5542 226.1286,-768.7174"/>
</g>
<!-- rust -->
<g id="node8" class="node">
<title>rust</title>
<g id="a_node8"><a xlink:href="https://www.rust-lang.org/" xlink:title="Rust">
<polygon fill="#ffff00" stroke="transparent" points="34.86,-574.9319 34.86,-596.9319 205.86,-596.9319 205.86,-574.9319 34.86,-574.9319"/>
<polygon fill="none" stroke="#000000" points="34.86,-574.9319 34.86,-596.9319 205.86,-596.9319 205.86,-574.9319 34.86,-574.9319"/>
<text text-anchor="start" x="107.5241" y="-581.3319" font-family="Times,serif" font-size="14.00" fill="#000000">Rust</text>
<polygon fill="#ffffff" stroke="transparent" points="34.86,-532.9319 34.86,-574.9319 205.86,-574.9319 205.86,-532.9319 34.86,-532.9319"/>
<polygon fill="none" stroke="#000000" points="34.86,-532.9319 34.86,-574.9319 205.86,-574.9319 205.86,-532.9319 34.86,-532.9319"/>
<text text-anchor="start" x="37.86" y="-562.9319" font-family="Times,serif" font-size="10.00" fill="#000000">Language that is focused on safety and</text>
<text text-anchor="start" x="37.86" y="-550.9319" font-family="Times,serif" font-size="10.00" fill="#000000">performance, used for desktop and server</text>
<text text-anchor="start" x="37.86" y="-538.9319" font-family="Times,serif" font-size="10.00" fill="#000000">applications and embedded systems.</text>
</a>
</g>
</g>
<!-- root&#45;&gt;rust -->
<g id="edge7" class="edge">
<title>root&#45;&gt;rust</title>
<path fill="none" stroke="#2b78e4" stroke-width="3" d="M622.413,-681.3891C376.2434,-617.8364 311.2568,-601.766 215.5094,-583.0251"/>
<polygon fill="#2b78e4" stroke="#2b78e4" stroke-width="3" points="216.0115,-579.5573 205.5271,-581.0828 214.6745,-586.4284 216.0115,-579.5573"/>
</g>
<!-- haskell -->
<g id="node9" class="node">
<title>haskell</title>
<g id="a_node9"><a xlink:href="https://www.haskell.org/" xlink:title="Haskell">
<polygon fill="#ffff00" stroke="transparent" points="120.556,-401.8864 120.556,-423.8864 265.556,-423.8864 265.556,-401.8864 120.556,-401.8864"/>
<polygon fill="none" stroke="#000000" points="120.556,-401.8864 120.556,-423.8864 265.556,-423.8864 265.556,-401.8864 120.556,-401.8864"/>
<text text-anchor="start" x="171.6752" y="-408.2864" font-family="Times,serif" font-size="14.00" fill="#000000">Haskell</text>
<polygon fill="#ffffff" stroke="transparent" points="120.556,-347.8864 120.556,-401.8864 265.556,-401.8864 265.556,-347.8864 120.556,-347.8864"/>
<polygon fill="none" stroke="#000000" points="120.556,-347.8864 120.556,-401.8864 265.556,-401.8864 265.556,-347.8864 120.556,-347.8864"/>
<text text-anchor="start" x="123.556" y="-389.8864" font-family="Times,serif" font-size="10.00" fill="#000000">Purely functional programming</text>
<text text-anchor="start" x="123.556" y="-377.8864" font-family="Times,serif" font-size="10.00" fill="#000000">language suitable for teaching,</text>
<text text-anchor="start" x="123.556" y="-365.8864" font-family="Times,serif" font-size="10.00" fill="#000000">research and industrial application,</text>
<text text-anchor="start" x="123.556" y="-353.8864" font-family="Times,serif" font-size="10.00" fill="#000000">mostly network and web software.</text>
</a>
</g>
</g>
<!-- root&#45;&gt;haskell -->
<g id="edge8" class="edge">
<title>root&#45;&gt;haskell</title>
<path fill="none" stroke="#2b78e4" stroke-width="3" d="M635.3352,-649.9072C409.8418,-513.2653 356.5505,-481.2187 266.9648,-429.0687"/>
<polygon fill="#2b78e4" stroke="#2b78e4" stroke-width="3" points="268.5786,-425.9583 258.1749,-423.9549 265.0585,-432.0089 268.5786,-425.9583"/>
</g>
<!-- php -->
<g id="node10" class="node">
<title>php</title>
<g id="a_node10"><a xlink:href="https://www.php.net/" xlink:title="PHP">
<polygon fill="#ffff00" stroke="transparent" points="311.3009,-270.3197 311.3009,-292.3197 432.3009,-292.3197 432.3009,-270.3197 311.3009,-270.3197"/>
<polygon fill="none" stroke="#000000" points="311.3009,-270.3197 311.3009,-292.3197 432.3009,-292.3197 432.3009,-270.3197 311.3009,-270.3197"/>
<text text-anchor="start" x="358.965" y="-276.7197" font-family="Times,serif" font-size="14.00" fill="#000000">PHP</text>
<polygon fill="#ffffff" stroke="transparent" points="311.3009,-228.3197 311.3009,-270.3197 432.3009,-270.3197 432.3009,-228.3197 311.3009,-228.3197"/>
<polygon fill="none" stroke="#000000" points="311.3009,-228.3197 311.3009,-270.3197 432.3009,-270.3197 432.3009,-228.3197 311.3009,-228.3197"/>
<text text-anchor="start" x="314.3009" y="-258.3197" font-family="Times,serif" font-size="10.00" fill="#000000">Interpreted programming</text>
<text text-anchor="start" x="314.3009" y="-246.3197" font-family="Times,serif" font-size="10.00" fill="#000000">language originally designed</text>
<text text-anchor="start" x="314.3009" y="-234.3197" font-family="Times,serif" font-size="10.00" fill="#000000">for web development.</text>
</a>
</g>
</g>
<!-- root&#45;&gt;php -->
<g id="edge9" class="edge">
<title>root&#45;&gt;php</title>
<path fill="none" stroke="#2b78e4" stroke-width="3" d="M660.9308,-620.6728C497.7053,-423.7301 470.403,-389.9718 401.8894,-300.39"/>
<polygon fill="#2b78e4" stroke="#2b78e4" stroke-width="3" points="404.6429,-298.2289 395.7894,-292.4095 399.0815,-302.4799 404.6429,-298.2289"/>
</g>
<!-- swift -->
<g id="node11" class="node">
<title>swift</title>
<g id="a_node11"><a xlink:href="https://swift.org/" xlink:title="Swift">
<polygon fill="#ffff00" stroke="transparent" points="524.3803,-166.9988 524.3803,-188.9988 648.3803,-188.9988 648.3803,-166.9988 524.3803,-166.9988"/>
<polygon fill="none" stroke="#000000" points="524.3803,-166.9988 524.3803,-188.9988 648.3803,-188.9988 648.3803,-166.9988 524.3803,-166.9988"/>
<text text-anchor="start" x="571.2148" y="-173.3988" font-family="Times,serif" font-size="14.00" fill="#000000">Swift</text>
<polygon fill="#ffffff" stroke="transparent" points="524.3803,-112.9988 524.3803,-166.9988 648.3803,-166.9988 648.3803,-112.9988 524.3803,-112.9988"/>
<polygon fill="none" stroke="#000000" points="524.3803,-112.9988 524.3803,-166.9988 648.3803,-166.9988 648.3803,-112.9988 524.3803,-112.9988"/>
<text text-anchor="start" x="527.3803" y="-154.9988" font-family="Times,serif" font-size="10.00" fill="#000000">General&#45;purpose compiled</text>
<text text-anchor="start" x="527.3803" y="-142.9988" font-family="Times,serif" font-size="10.00" fill="#000000">language for desktop and</text>
<text text-anchor="start" x="527.3803" y="-130.9988" font-family="Times,serif" font-size="10.00" fill="#000000">mobile development for</text>
<text text-anchor="start" x="527.3803" y="-118.9988" font-family="Times,serif" font-size="10.00" fill="#000000">Apple devices (iOS, macOS).</text>
</a>
</g>
</g>
<!-- root&#45;&gt;swift -->
<g id="edge10" class="edge">
<title>root&#45;&gt;swift</title>
<path fill="none" stroke="#2b78e4" stroke-width="3" d="M701.7505,-598.9065C627.5791,-352.9818 616.6818,-311.8994 595.3531,-199.0581"/>
<polygon fill="#2b78e4" stroke="#2b78e4" stroke-width="3" points="598.7497,-198.1816 593.4598,-189.0018 591.8706,-199.4768 598.7497,-198.1816"/>
</g>
<!-- go -->
<g id="node12" class="node">
<title>go</title>
<g id="a_node12"><a xlink:href="https://golang.org/" xlink:title="Go">
<polygon fill="#ffff00" stroke="transparent" points="722.2143,-101.4839 722.2143,-123.4839 836.2143,-123.4839 836.2143,-101.4839 722.2143,-101.4839"/>
<polygon fill="none" stroke="#000000" points="722.2143,-101.4839 722.2143,-123.4839 836.2143,-123.4839 836.2143,-101.4839 722.2143,-101.4839"/>
<text text-anchor="start" x="770.661" y="-107.8839" font-family="Times,serif" font-size="14.00" fill="#000000">Go</text>
<polygon fill="#ffffff" stroke="transparent" points="722.2143,-35.4839 722.2143,-101.4839 836.2143,-101.4839 836.2143,-35.4839 722.2143,-35.4839"/>
<polygon fill="none" stroke="#000000" points="722.2143,-35.4839 722.2143,-101.4839 836.2143,-101.4839 836.2143,-35.4839 722.2143,-35.4839"/>
<text text-anchor="start" x="725.2143" y="-89.4839" font-family="Times,serif" font-size="10.00" fill="#000000">General&#45;purpose compiled</text>
<text text-anchor="start" x="725.2143" y="-77.4839" font-family="Times,serif" font-size="10.00" fill="#000000">language focused on safety</text>
<text text-anchor="start" x="725.2143" y="-65.4839" font-family="Times,serif" font-size="10.00" fill="#000000">and concurrency, used for</text>
<text text-anchor="start" x="725.2143" y="-53.4839" font-family="Times,serif" font-size="10.00" fill="#000000">network and system</text>
<text text-anchor="start" x="725.2143" y="-41.4839" font-family="Times,serif" font-size="10.00" fill="#000000">applications.</text>
</a>
</g>
</g>
<!-- root&#45;&gt;go -->
<g id="edge11" class="edge">
<title>root&#45;&gt;go</title>
<path fill="none" stroke="#2b78e4" stroke-width="3" d="M738.4768,-593.8034C745.9766,-305.3201 749.0802,-258.6688 769.9534,-133.8312"/>
<polygon fill="#2b78e4" stroke="#2b78e4" stroke-width="3" points="773.415,-134.3514 771.6214,-123.9095 766.5119,-133.1908 773.415,-134.3514"/>
</g>
<!-- r -->
<g id="node13" class="node">
<title>r</title>
<polygon fill="#ffff00" stroke="transparent" points="870.6289,-101.2767 870.6289,-123.2767 941.6289,-123.2767 941.6289,-101.2767 870.6289,-101.2767"/>
<polygon fill="none" stroke="#000000" points="870.6289,-101.2767 870.6289,-123.2767 941.6289,-123.2767 941.6289,-101.2767 870.6289,-101.2767"/>
<text text-anchor="start" x="901.4606" y="-107.6767" font-family="Times,serif" font-size="14.00" fill="#000000">R</text>
<polygon fill="#ffffff" stroke="transparent" points="870.6289,-79.2767 870.6289,-101.2767 941.6289,-101.2767 941.6289,-79.2767 870.6289,-79.2767"/>
<polygon fill="none" stroke="#000000" points="870.6289,-79.2767 870.6289,-101.2767 941.6289,-101.2767 941.6289,-79.2767 870.6289,-79.2767"/>
<text text-anchor="start" x="873.4725" y="-85.6767" font-family="Times,serif" font-size="14.00" fill="#000000">Description</text>
</g>
<!-- root&#45;&gt;r -->
<g id="edge12" class="edge">
<title>root&#45;&gt;r</title>
<path fill="none" stroke="#2b78e4" stroke-width="3" d="M761.2153,-596.7234C828.3173,-300.3513 838.5119,-266.249 892.7517,-132.845"/>
<polygon fill="#2b78e4" stroke="#2b78e4" stroke-width="3" points="896.0322,-134.0693 896.5615,-123.4877 889.5489,-131.4296 896.0322,-134.0693"/>
</g>
<!-- julia -->
<g id="node14" class="node">
<title>julia</title>
<polygon fill="#ffff00" stroke="transparent" points="970.7691,-138.6086 970.7691,-160.6086 1041.7691,-160.6086 1041.7691,-138.6086 970.7691,-138.6086"/>
<polygon fill="none" stroke="#000000" points="970.7691,-138.6086 970.7691,-160.6086 1041.7691,-160.6086 1041.7691,-138.6086 970.7691,-138.6086"/>
<text text-anchor="start" x="993.0489" y="-145.0086" font-family="Times,serif" font-size="14.00" fill="#000000">Julia</text>
<polygon fill="#ffffff" stroke="transparent" points="970.7691,-116.6086 970.7691,-138.6086 1041.7691,-138.6086 1041.7691,-116.6086 970.7691,-116.6086"/>
<polygon fill="none" stroke="#000000" points="970.7691,-116.6086 970.7691,-138.6086 1041.7691,-138.6086 1041.7691,-116.6086 970.7691,-116.6086"/>
<text text-anchor="start" x="973.6127" y="-123.0086" font-family="Times,serif" font-size="14.00" fill="#000000">Description</text>
</g>
<!-- root&#45;&gt;julia -->
<g id="edge13" class="edge">
<title>root&#45;&gt;julia</title>
<path fill="none" stroke="#2b78e4" stroke-width="3" d="M779.5291,-602.5484C893.7121,-322.8111 909.9793,-289.8173 986.2503,-169.343"/>
<polygon fill="#2b78e4" stroke="#2b78e4" stroke-width="3" points="989.207,-171.2159 991.6047,-160.8959 983.2947,-167.4682 989.207,-171.2159"/>
</g>
<!-- scala -->
<g id="node15" class="node">
<title>scala</title>
<polygon fill="#ffff00" stroke="transparent" points="1063.1964,-192.2641 1063.1964,-214.2641 1134.1964,-214.2641 1134.1964,-192.2641 1063.1964,-192.2641"/>
<polygon fill="none" stroke="#000000" points="1063.1964,-192.2641 1063.1964,-214.2641 1134.1964,-214.2641 1134.1964,-192.2641 1063.1964,-192.2641"/>
<text text-anchor="start" x="1083.5379" y="-198.6641" font-family="Times,serif" font-size="14.00" fill="#000000">Scala</text>
<polygon fill="#ffffff" stroke="transparent" points="1063.1964,-170.2641 1063.1964,-192.2641 1134.1964,-192.2641 1134.1964,-170.2641 1063.1964,-170.2641"/>
<polygon fill="none" stroke="#000000" points="1063.1964,-170.2641 1063.1964,-192.2641 1134.1964,-192.2641 1134.1964,-170.2641 1063.1964,-170.2641"/>
<text text-anchor="start" x="1066.04" y="-176.6641" font-family="Times,serif" font-size="14.00" fill="#000000">Description</text>
</g>
<!-- root&#45;&gt;scala -->
<g id="edge14" class="edge">
<title>root&#45;&gt;scala</title>
<path fill="none" stroke="#2b78e4" stroke-width="3" d="M797.0373,-610.9065C954.1187,-356.7822 976.8186,-325.1933 1070.9087,-222.0612"/>
<polygon fill="#2b78e4" stroke="#2b78e4" stroke-width="3" points="1073.6483,-224.2516 1077.8094,-214.508 1068.4804,-219.5301 1073.6483,-224.2516"/>
</g>
<!-- clojure -->
<g id="node16" class="node">
<title>clojure</title>
<polygon fill="#ffff00" stroke="transparent" points="1145.2733,-260.7121 1145.2733,-282.7121 1216.2733,-282.7121 1216.2733,-260.7121 1145.2733,-260.7121"/>
<polygon fill="none" stroke="#000000" points="1145.2733,-260.7121 1145.2733,-282.7121 1216.2733,-282.7121 1216.2733,-260.7121 1145.2733,-260.7121"/>
<text text-anchor="start" x="1159.7768" y="-267.1121" font-family="Times,serif" font-size="14.00" fill="#000000">Clojure</text>
<polygon fill="#ffffff" stroke="transparent" points="1145.2733,-238.7121 1145.2733,-260.7121 1216.2733,-260.7121 1216.2733,-238.7121 1145.2733,-238.7121"/>
<polygon fill="none" stroke="#000000" points="1145.2733,-238.7121 1145.2733,-260.7121 1216.2733,-260.7121 1216.2733,-238.7121 1145.2733,-238.7121"/>
<text text-anchor="start" x="1148.1169" y="-245.1121" font-family="Times,serif" font-size="14.00" fill="#000000">Description</text>
</g>
<!-- root&#45;&gt;clojure -->
<g id="edge15" class="edge">
<title>root&#45;&gt;clojure</title>
<path fill="none" stroke="#2b78e4" stroke-width="3" d="M812.7782,-622.5815C1007.1209,-401.5095 1036.8464,-371.7808 1143.4734,-289.0927"/>
<polygon fill="#2b78e4" stroke="#2b78e4" stroke-width="3" points="1145.8614,-291.6704 1151.6267,-282.7816 1141.5766,-286.135 1145.8614,-291.6704"/>
</g>
<!-- ocaml -->
<g id="node17" class="node">
<title>ocaml</title>
<polygon fill="#ffff00" stroke="transparent" points="1214.6573,-341.9992 1214.6573,-363.9992 1285.6573,-363.9992 1285.6573,-341.9992 1214.6573,-341.9992"/>
<polygon fill="none" stroke="#000000" points="1214.6573,-341.9992 1214.6573,-363.9992 1285.6573,-363.9992 1285.6573,-341.9992 1214.6573,-341.9992"/>
<text text-anchor="start" x="1229.9378" y="-348.3992" font-family="Times,serif" font-size="14.00" fill="#000000">OCaml</text>
<polygon fill="#ffffff" stroke="transparent" points="1214.6573,-319.9992 1214.6573,-341.9992 1285.6573,-341.9992 1285.6573,-319.9992 1214.6573,-319.9992"/>
<polygon fill="none" stroke="#000000" points="1214.6573,-319.9992 1214.6573,-341.9992 1285.6573,-341.9992 1285.6573,-319.9992 1214.6573,-319.9992"/>
<text text-anchor="start" x="1217.5009" y="-326.3992" font-family="Times,serif" font-size="14.00" fill="#000000">Description</text>
</g>
<!-- root&#45;&gt;ocaml -->
<g id="edge16" class="edge">
<title>root&#45;&gt;ocaml</title>
<path fill="none" stroke="#2b78e4" stroke-width="3" d="M826.4906,-636.8431C1053.0957,-453.3884 1088.9027,-427.8065 1205.2388,-365.5757"/>
<polygon fill="#2b78e4" stroke="#2b78e4" stroke-width="3" points="1206.9537,-368.6278 1214.1283,-360.8318 1203.658,-362.4521 1206.9537,-368.6278"/>
</g>
<!-- ruby -->
<g id="node18" class="node">
<title>ruby</title>
<polygon fill="#ffff00" stroke="transparent" points="1269.3685,-433.8056 1269.3685,-455.8056 1340.3685,-455.8056 1340.3685,-433.8056 1269.3685,-433.8056"/>
<polygon fill="none" stroke="#000000" points="1269.3685,-433.8056 1269.3685,-455.8056 1340.3685,-455.8056 1340.3685,-433.8056 1269.3685,-433.8056"/>
<text text-anchor="start" x="1289.7002" y="-440.2056" font-family="Times,serif" font-size="14.00" fill="#000000">Ruby</text>
<polygon fill="#ffffff" stroke="transparent" points="1269.3685,-411.8056 1269.3685,-433.8056 1340.3685,-433.8056 1340.3685,-411.8056 1269.3685,-411.8056"/>
<polygon fill="none" stroke="#000000" points="1269.3685,-411.8056 1269.3685,-433.8056 1340.3685,-433.8056 1340.3685,-411.8056 1269.3685,-411.8056"/>
<text text-anchor="start" x="1272.2121" y="-418.2056" font-family="Times,serif" font-size="14.00" fill="#000000">Description</text>
</g>
<!-- root&#45;&gt;ruby -->
<g id="edge17" class="edge">
<title>root&#45;&gt;ruby</title>
<path fill="none" stroke="#2b78e4" stroke-width="3" d="M837.7378,-653.3775C1093.9299,-510.1833 1132.4027,-491.6602 1259.1402,-448.9188"/>
<polygon fill="#2b78e4" stroke="#2b78e4" stroke-width="3" points="1260.4626,-452.1668 1268.8257,-445.6622 1258.2317,-445.5319 1260.4626,-452.1668"/>
</g>
<!-- qt -->
<g id="node19" class="node">
<title>qt</title>
<polygon fill="#ffff00" stroke="transparent" points="1248.5474,-561.4272 1248.5474,-583.4272 1319.5474,-583.4272 1319.5474,-561.4272 1248.5474,-561.4272"/>
<polygon fill="none" stroke="#000000" points="1248.5474,-561.4272 1248.5474,-583.4272 1319.5474,-583.4272 1319.5474,-561.4272 1248.5474,-561.4272"/>
<text text-anchor="start" x="1277.0488" y="-567.8272" font-family="Times,serif" font-size="14.00" fill="#000000">Qt</text>
<polygon fill="#ffffff" stroke="transparent" points="1248.5474,-539.4272 1248.5474,-561.4272 1319.5474,-561.4272 1319.5474,-539.4272 1248.5474,-539.4272"/>
<polygon fill="none" stroke="#000000" points="1248.5474,-539.4272 1248.5474,-561.4272 1319.5474,-561.4272 1319.5474,-539.4272 1248.5474,-539.4272"/>
<text text-anchor="start" x="1251.391" y="-545.8272" font-family="Times,serif" font-size="14.00" fill="#000000">Description</text>
</g>
<!-- cpp&#45;&gt;qt -->
<g id="edge18" class="edge">
<title>cpp&#45;&gt;qt</title>
<path fill="none" stroke="#000000" stroke-width="3" d="M1364.4505,-678.4142C1358.6142,-634.6842 1350.6034,-621.991 1308.1624,-583.4496"/>
</g>
<!-- boost -->
<g id="node20" class="node">
<title>boost</title>
<polygon fill="#ffff00" stroke="transparent" points="1504.5934,-706.6131 1504.5934,-728.6131 1575.5934,-728.6131 1575.5934,-706.6131 1504.5934,-706.6131"/>
<polygon fill="none" stroke="#000000" points="1504.5934,-706.6131 1504.5934,-728.6131 1575.5934,-728.6131 1575.5934,-706.6131 1504.5934,-706.6131"/>
<text text-anchor="start" x="1524.9258" y="-713.0131" font-family="Times,serif" font-size="14.00" fill="#000000">boost</text>
<polygon fill="#ffffff" stroke="transparent" points="1504.5934,-684.6131 1504.5934,-706.6131 1575.5934,-706.6131 1575.5934,-684.6131 1504.5934,-684.6131"/>
<polygon fill="none" stroke="#000000" points="1504.5934,-684.6131 1504.5934,-706.6131 1575.5934,-706.6131 1575.5934,-684.6131 1504.5934,-684.6131"/>
<text text-anchor="start" x="1507.437" y="-691.0131" font-family="Times,serif" font-size="14.00" fill="#000000">Description</text>
</g>
<!-- cpp&#45;&gt;boost -->
<g id="edge19" class="edge">
<title>cpp&#45;&gt;boost</title>
<path fill="none" stroke="#000000" stroke-width="3" d="M1460.2487,-707.5063C1479.2757,-706.9361 1491.4758,-706.6898 1503.9553,-706.6014"/>
</g>
<!-- unreal -->
<g id="node21" class="node">
<title>unreal</title>
<polygon fill="#ffff00" stroke="transparent" points="1240.5474,-859.7982 1240.5474,-881.7982 1327.5474,-881.7982 1327.5474,-859.7982 1240.5474,-859.7982"/>
<polygon fill="none" stroke="#000000" points="1240.5474,-859.7982 1240.5474,-881.7982 1327.5474,-881.7982 1327.5474,-859.7982 1240.5474,-859.7982"/>
<text text-anchor="start" x="1243.425" y="-866.1982" font-family="Times,serif" font-size="14.00" fill="#000000">Unreal Engine</text>
<polygon fill="#ffffff" stroke="transparent" points="1240.5474,-837.7982 1240.5474,-859.7982 1327.5474,-859.7982 1327.5474,-837.7982 1240.5474,-837.7982"/>
<polygon fill="none" stroke="#000000" points="1240.5474,-837.7982 1240.5474,-859.7982 1327.5474,-859.7982 1327.5474,-837.7982 1240.5474,-837.7982"/>
<text text-anchor="start" x="1251.391" y="-844.1982" font-family="Times,serif" font-size="14.00" fill="#000000">Description</text>
</g>
<!-- cpp&#45;&gt;unreal -->
<g id="edge20" class="edge">
<title>cpp&#45;&gt;unreal</title>
<path fill="none" stroke="#000000" stroke-width="3" d="M1364.448,-742.8593C1358.894,-782.9818 1350.313,-795.8683 1306.9133,-837.5857"/>
</g>
<!-- spring -->
<g id="node22" class="node">
<title>spring</title>
<polygon fill="#ffff00" stroke="transparent" points="1285.7887,-999.1793 1285.7887,-1021.1793 1356.7887,-1021.1793 1356.7887,-999.1793 1285.7887,-999.1793"/>
<polygon fill="none" stroke="#000000" points="1285.7887,-999.1793 1285.7887,-1021.1793 1356.7887,-1021.1793 1356.7887,-999.1793 1285.7887,-999.1793"/>
<text text-anchor="start" x="1302.6218" y="-1005.5793" font-family="Times,serif" font-size="14.00" fill="#000000">Spring</text>
<polygon fill="#ffffff" stroke="transparent" points="1285.7887,-977.1793 1285.7887,-999.1793 1356.7887,-999.1793 1356.7887,-977.1793 1285.7887,-977.1793"/>
<polygon fill="none" stroke="#000000" points="1285.7887,-977.1793 1285.7887,-999.1793 1356.7887,-999.1793 1356.7887,-977.1793 1285.7887,-977.1793"/>
<text text-anchor="start" x="1288.6323" y="-983.5793" font-family="Times,serif" font-size="14.00" fill="#000000">Description</text>
</g>
<!-- java&#45;&gt;spring -->
<g id="edge21" class="edge">
<title>java&#45;&gt;spring</title>
<path fill="none" stroke="#000000" stroke-width="3" d="M1262.4237,-1094.8771C1292.4943,-1075.7122 1300.1005,-1062.2933 1313.6588,-1021.2757"/>
</g>
<!-- javafx -->
<g id="node23" class="node">
<title>javafx</title>
<polygon fill="#ffff00" stroke="transparent" points="1078.2299,-1242.7349 1078.2299,-1264.7349 1149.2299,-1264.7349 1149.2299,-1242.7349 1078.2299,-1242.7349"/>
<polygon fill="none" stroke="#000000" points="1078.2299,-1242.7349 1078.2299,-1264.7349 1149.2299,-1264.7349 1149.2299,-1242.7349 1078.2299,-1242.7349"/>
<text text-anchor="start" x="1092.3484" y="-1249.1349" font-family="Times,serif" font-size="14.00" fill="#000000">JavaFX</text>
<polygon fill="#ffffff" stroke="transparent" points="1078.2299,-1220.7349 1078.2299,-1242.7349 1149.2299,-1242.7349 1149.2299,-1220.7349 1078.2299,-1220.7349"/>
<polygon fill="none" stroke="#000000" points="1078.2299,-1220.7349 1078.2299,-1242.7349 1149.2299,-1242.7349 1149.2299,-1220.7349 1078.2299,-1220.7349"/>
<text text-anchor="start" x="1081.0735" y="-1227.1349" font-family="Times,serif" font-size="14.00" fill="#000000">Description</text>
</g>
<!-- java&#45;&gt;javafx -->
<g id="edge22" class="edge">
<title>java&#45;&gt;javafx</title>
<path fill="none" stroke="#000000" stroke-width="3" d="M1207.4293,-1147.1291C1190.266,-1192.9743 1181.9265,-1205.6067 1149.1547,-1224.0502"/>
</g>
<!-- django -->
<g id="node30" class="node">
<title>django</title>
<polygon fill="#ffff00" stroke="transparent" points="941.4753,-1229.2104 941.4753,-1251.2104 1012.4753,-1251.2104 1012.4753,-1229.2104 941.4753,-1229.2104"/>
<polygon fill="none" stroke="#000000" points="941.4753,-1229.2104 941.4753,-1251.2104 1012.4753,-1251.2104 1012.4753,-1229.2104 941.4753,-1229.2104"/>
<text text-anchor="start" x="956.3694" y="-1235.6104" font-family="Times,serif" font-size="14.00" fill="#000000">Django</text>
<polygon fill="#ffffff" stroke="transparent" points="941.4753,-1207.2104 941.4753,-1229.2104 1012.4753,-1229.2104 1012.4753,-1207.2104 941.4753,-1207.2104"/>
<polygon fill="none" stroke="#000000" points="941.4753,-1207.2104 941.4753,-1229.2104 1012.4753,-1229.2104 1012.4753,-1207.2104 941.4753,-1207.2104"/>
<text text-anchor="start" x="944.3189" y="-1213.6104" font-family="Times,serif" font-size="14.00" fill="#000000">Description</text>
</g>
<!-- python&#45;&gt;django -->
<g id="edge29" class="edge">
<title>python&#45;&gt;django</title>
<path fill="none" stroke="#000000" stroke-width="3" d="M928.9376,-1298.2372C938.7794,-1288.3212 948.3716,-1274.1877 962.6256,-1251.4811"/>
</g>
<!-- keras -->
<g id="node31" class="node">
<title>keras</title>
<polygon fill="#ffff00" stroke="transparent" points="857.9684,-1479.8004 857.9684,-1501.8004 928.9684,-1501.8004 928.9684,-1479.8004 857.9684,-1479.8004"/>
<polygon fill="none" stroke="#000000" points="857.9684,-1479.8004 857.9684,-1501.8004 928.9684,-1501.8004 928.9684,-1479.8004 857.9684,-1479.8004"/>
<text text-anchor="start" x="877.1479" y="-1486.2004" font-family="Times,serif" font-size="14.00" fill="#000000">Keras</text>
<polygon fill="#ffffff" stroke="transparent" points="857.9684,-1457.8004 857.9684,-1479.8004 928.9684,-1479.8004 928.9684,-1457.8004 857.9684,-1457.8004"/>
<polygon fill="none" stroke="#000000" points="857.9684,-1457.8004 857.9684,-1479.8004 928.9684,-1479.8004 928.9684,-1457.8004 857.9684,-1457.8004"/>
<text text-anchor="start" x="860.812" y="-1464.2004" font-family="Times,serif" font-size="14.00" fill="#000000">Description</text>
</g>
<!-- python&#45;&gt;keras -->
<g id="edge30" class="edge">
<title>python&#45;&gt;keras</title>
<path fill="none" stroke="#000000" stroke-width="3" d="M868.3803,-1362.7177C878.9567,-1419.6094 881.9972,-1435.0174 887.4525,-1457.5464"/>
</g>
<!-- tensorflow -->
<g id="node32" class="node">
<title>tensorflow</title>
<polygon fill="#ffff00" stroke="transparent" points="682.7046,-1282.1863 682.7046,-1304.1863 753.7046,-1304.1863 753.7046,-1282.1863 682.7046,-1282.1863"/>
<polygon fill="none" stroke="#000000" points="682.7046,-1282.1863 682.7046,-1304.1863 753.7046,-1304.1863 753.7046,-1282.1863 682.7046,-1282.1863"/>
<text text-anchor="start" x="685.9395" y="-1288.5863" font-family="Times,serif" font-size="14.00" fill="#000000">Tensorflow</text>
<polygon fill="#ffffff" stroke="transparent" points="682.7046,-1260.1863 682.7046,-1282.1863 753.7046,-1282.1863 753.7046,-1260.1863 682.7046,-1260.1863"/>
<polygon fill="none" stroke="#000000" points="682.7046,-1260.1863 682.7046,-1282.1863 753.7046,-1282.1863 753.7046,-1260.1863 682.7046,-1260.1863"/>
<text text-anchor="start" x="685.5482" y="-1266.5863" font-family="Times,serif" font-size="14.00" fill="#000000">Description</text>
</g>
<!-- python&#45;&gt;tensorflow -->
<g id="edge31" class="edge">
<title>python&#45;&gt;tensorflow</title>
<path fill="none" stroke="#000000" stroke-width="3" d="M781.1628,-1325.5589C771.5147,-1321.0467 761.0575,-1314.2126 747.2602,-1304.2131"/>
</g>
<!-- angular -->
<g id="node24" class="node">
<title>angular</title>
<g id="a_node24"><a xlink:href="https://angular.io" xlink:title="Angular">
<polygon fill="#ffff00" stroke="transparent" points="551.4082,-1199.8371 551.4082,-1221.8371 622.4082,-1221.8371 622.4082,-1199.8371 551.4082,-1199.8371"/>
<polygon fill="none" stroke="#000000" points="551.4082,-1199.8371 551.4082,-1221.8371 622.4082,-1221.8371 622.4082,-1199.8371 551.4082,-1199.8371"/>
<text text-anchor="start" x="563.972" y="-1206.2371" font-family="Times,serif" font-size="14.00" fill="#000000">Angular</text>
<polygon fill="#ffffff" stroke="transparent" points="551.4082,-1177.8371 551.4082,-1199.8371 622.4082,-1199.8371 622.4082,-1177.8371 551.4082,-1177.8371"/>
<polygon fill="none" stroke="#000000" points="551.4082,-1177.8371 551.4082,-1199.8371 622.4082,-1199.8371 622.4082,-1177.8371 551.4082,-1177.8371"/>
<text text-anchor="start" x="554.2518" y="-1184.2371" font-family="Times,serif" font-size="14.00" fill="#000000">Description</text>
</a>
</g>
</g>
<!-- javascript&#45;&gt;angular -->
<g id="edge23" class="edge">
<title>javascript&#45;&gt;angular</title>
<path fill="none" stroke="#000000" stroke-width="3" d="M529.1525,-1251.0115C537.8604,-1243.898 548.33,-1234.593 562.2982,-1221.8873"/>
</g>
<!-- react -->
<g id="node25" class="node">
<title>react</title>
<g id="a_node25"><a xlink:href="https://reactjs.org" xlink:title="React">
<polygon fill="#ffff00" stroke="transparent" points="563.7401,-1345.3154 563.7401,-1367.3154 634.7401,-1367.3154 634.7401,-1345.3154 563.7401,-1345.3154"/>
<polygon fill="none" stroke="#000000" points="563.7401,-1345.3154 563.7401,-1367.3154 634.7401,-1367.3154 634.7401,-1345.3154 563.7401,-1345.3154"/>
<text text-anchor="start" x="583.3046" y="-1351.7154" font-family="Times,serif" font-size="14.00" fill="#000000">React</text>
<polygon fill="#ffffff" stroke="transparent" points="563.7401,-1323.3154 563.7401,-1345.3154 634.7401,-1345.3154 634.7401,-1323.3154 563.7401,-1323.3154"/>
<polygon fill="none" stroke="#000000" points="563.7401,-1323.3154 563.7401,-1345.3154 634.7401,-1345.3154 634.7401,-1323.3154 563.7401,-1323.3154"/>
<text text-anchor="start" x="566.5837" y="-1329.7154" font-family="Times,serif" font-size="14.00" fill="#000000">Description</text>
</a>
</g>
</g>
<!-- javascript&#45;&gt;react -->
<g id="edge24" class="edge">
<title>javascript&#45;&gt;react</title>
<path fill="none" stroke="#000000" stroke-width="3" d="M497.8,-1315.4777C518.5662,-1335.0259 531.7405,-1340.1499 563.1366,-1342.9719"/>
</g>
<!-- vue -->
<g id="node26" class="node">
<title>vue</title>
<g id="a_node26"><a xlink:href="https://vuejs.org" xlink:title="Vue">
<polygon fill="#ffff00" stroke="transparent" points="443.9182,-1428.7343 443.9182,-1450.7343 514.9182,-1450.7343 514.9182,-1428.7343 443.9182,-1428.7343"/>
<polygon fill="none" stroke="#000000" points="443.9182,-1428.7343 443.9182,-1450.7343 514.9182,-1450.7343 514.9182,-1428.7343 443.9182,-1428.7343"/>
<text text-anchor="start" x="467.7576" y="-1435.1343" font-family="Times,serif" font-size="14.00" fill="#000000">Vue</text>
<polygon fill="#ffffff" stroke="transparent" points="443.9182,-1406.7343 443.9182,-1428.7343 514.9182,-1428.7343 514.9182,-1406.7343 443.9182,-1406.7343"/>
<polygon fill="none" stroke="#000000" points="443.9182,-1406.7343 443.9182,-1428.7343 514.9182,-1428.7343 514.9182,-1406.7343 443.9182,-1406.7343"/>
<text text-anchor="start" x="446.7618" y="-1413.1343" font-family="Times,serif" font-size="14.00" fill="#000000">Description</text>
</a>
</g>
</g>
<!-- javascript&#45;&gt;vue -->
<g id="edge25" class="edge">
<title>javascript&#45;&gt;vue</title>
<path fill="none" stroke="#000000" stroke-width="3" d="M464.2427,-1315.4597C460.5582,-1368.4443 461.1007,-1382.7673 469.9561,-1406.6304"/>
</g>
<!-- express -->
<g id="node27" class="node">
<title>express</title>
<polygon fill="#ffff00" stroke="transparent" points="311.7644,-1366.6749 311.7644,-1388.6749 382.7644,-1388.6749 382.7644,-1366.6749 311.7644,-1366.6749"/>
<polygon fill="none" stroke="#000000" points="311.7644,-1366.6749 311.7644,-1388.6749 382.7644,-1388.6749 382.7644,-1366.6749 311.7644,-1366.6749"/>
<text text-anchor="start" x="325.1059" y="-1373.0749" font-family="Times,serif" font-size="14.00" fill="#000000">Express</text>
<polygon fill="#ffffff" stroke="transparent" points="311.7644,-1344.6749 311.7644,-1366.6749 382.7644,-1366.6749 382.7644,-1344.6749 311.7644,-1344.6749"/>
<polygon fill="none" stroke="#000000" points="311.7644,-1344.6749 311.7644,-1366.6749 382.7644,-1366.6749 382.7644,-1344.6749 311.7644,-1344.6749"/>
<text text-anchor="start" x="314.608" y="-1351.0749" font-family="Times,serif" font-size="14.00" fill="#000000">Description</text>
</g>
<!-- javascript&#45;&gt;express -->
<g id="edge26" class="edge">
<title>javascript&#45;&gt;express</title>
<path fill="none" stroke="#000000" stroke-width="3" d="M429.5365,-1315.2696C406.9565,-1334.5194 394.769,-1343.9382 382.396,-1350.8903"/>
</g>
<!-- nestjs -->
<g id="node28" class="node">
<title>nestjs</title>
<polygon fill="#ffff00" stroke="transparent" points="299.4325,-1221.1967 299.4325,-1243.1967 370.4325,-1243.1967 370.4325,-1221.1967 299.4325,-1221.1967"/>
<polygon fill="none" stroke="#000000" points="299.4325,-1221.1967 299.4325,-1243.1967 370.4325,-1243.1967 370.4325,-1221.1967 299.4325,-1221.1967"/>
<text text-anchor="start" x="315.4907" y="-1227.5967" font-family="Times,serif" font-size="14.00" fill="#000000">NestJS</text>
<polygon fill="#ffffff" stroke="transparent" points="299.4325,-1199.1967 299.4325,-1221.1967 370.4325,-1221.1967 370.4325,-1199.1967 299.4325,-1199.1967"/>
<polygon fill="none" stroke="#000000" points="299.4325,-1199.1967 299.4325,-1221.1967 370.4325,-1221.1967 370.4325,-1199.1967 299.4325,-1199.1967"/>
<text text-anchor="start" x="302.2761" y="-1205.5967" font-family="Times,serif" font-size="14.00" fill="#000000">Description</text>
</g>
<!-- javascript&#45;&gt;nestjs -->
<g id="edge27" class="edge">
<title>javascript&#45;&gt;nestjs</title>
<path fill="none" stroke="#000000" stroke-width="3" d="M391.9035,-1271.5972C378.4446,-1266.4121 368.54,-1258.2398 354.6762,-1243.5518"/>
</g>
<!-- electron -->
<g id="node29" class="node">
<title>electron</title>
<polygon fill="#ffff00" stroke="transparent" points="419.2543,-1137.7777 419.2543,-1159.7777 490.2543,-1159.7777 490.2543,-1137.7777 419.2543,-1137.7777"/>
<polygon fill="none" stroke="#000000" points="419.2543,-1137.7777 419.2543,-1159.7777 490.2543,-1159.7777 490.2543,-1137.7777 419.2543,-1137.7777"/>
<text text-anchor="start" x="431.0425" y="-1144.1777" font-family="Times,serif" font-size="14.00" fill="#000000">Electron</text>
<polygon fill="#ffffff" stroke="transparent" points="419.2543,-1115.7777 419.2543,-1137.7777 490.2543,-1137.7777 490.2543,-1115.7777 419.2543,-1115.7777"/>
<polygon fill="none" stroke="#000000" points="419.2543,-1115.7777 419.2543,-1137.7777 490.2543,-1137.7777 490.2543,-1115.7777 419.2543,-1115.7777"/>
<text text-anchor="start" x="422.0979" y="-1122.1777" font-family="Times,serif" font-size="14.00" fill="#000000">Description</text>
</g>
<!-- javascript&#45;&gt;electron -->
<g id="edge28" class="edge">
<title>javascript&#45;&gt;electron</title>
<path fill="none" stroke="#000000" stroke-width="3" d="M452.5676,-1251.1075C445.2468,-1229.857 446.0775,-1212.396 451.7838,-1160.0788"/>
</g>
<!-- android -->
<g id="node33" class="node">
<title>android</title>
<polygon fill="#ffff00" stroke="transparent" points="85.9232,-1108.5156 85.9232,-1130.5156 156.9232,-1130.5156 156.9232,-1108.5156 85.9232,-1108.5156"/>
<polygon fill="none" stroke="#000000" points="85.9232,-1108.5156 85.9232,-1130.5156 156.9232,-1130.5156 156.9232,-1108.5156 85.9232,-1108.5156"/>
<text text-anchor="start" x="98.0943" y="-1114.9156" font-family="Times,serif" font-size="14.00" fill="#000000">Android</text>
<polygon fill="#ffffff" stroke="transparent" points="85.9232,-1086.5156 85.9232,-1108.5156 156.9232,-1108.5156 156.9232,-1086.5156 85.9232,-1086.5156"/>
<polygon fill="none" stroke="#000000" points="85.9232,-1086.5156 85.9232,-1108.5156 156.9232,-1108.5156 156.9232,-1086.5156 85.9232,-1086.5156"/>
<text text-anchor="start" x="88.7668" y="-1092.9156" font-family="Times,serif" font-size="14.00" fill="#000000">Description</text>
</g>
<!-- kotlin&#45;&gt;android -->
<g id="edge32" class="edge">
<title>kotlin&#45;&gt;android</title>
<path fill="none" stroke="#000000" stroke-width="3" d="M196.9343,-1057.4603C174.7762,-1071.1126 162.5722,-1078.8726 151.6346,-1086.3652"/>
</g>
<!-- xamarin -->
<g id="node34" class="node">
<title>xamarin</title>
<polygon fill="#ffff00" stroke="transparent" points=".5,-803.5433 .5,-825.5433 71.5,-825.5433 71.5,-803.5433 .5,-803.5433"/>
<polygon fill="none" stroke="#000000" points=".5,-803.5433 .5,-825.5433 71.5,-825.5433 71.5,-803.5433 .5,-803.5433"/>
<text text-anchor="start" x="11.5112" y="-809.9433" font-family="Times,serif" font-size="14.00" fill="#000000">Xamarin</text>
<polygon fill="#ffffff" stroke="transparent" points=".5,-781.5433 .5,-803.5433 71.5,-803.5433 71.5,-781.5433 .5,-781.5433"/>
<polygon fill="none" stroke="#000000" points=".5,-781.5433 .5,-803.5433 71.5,-803.5433 71.5,-781.5433 .5,-781.5433"/>
<text text-anchor="start" x="3.3436" y="-787.9433" font-family="Times,serif" font-size="14.00" fill="#000000">Description</text>
</g>
<!-- csharp&#45;&gt;xamarin -->
<g id="edge33" class="edge">
<title>csharp&#45;&gt;xamarin</title>
<path fill="none" stroke="#000000" stroke-width="3" d="M105.6201,-793.1905C90.1272,-795.0028 79.97,-796.2804 71.1699,-797.5513"/>
</g>
<!-- laravel -->
<g id="node35" class="node">
<title>laravel</title>
<polygon fill="#ffff00" stroke="transparent" points="253.2914,-157.6872 253.2914,-179.6872 324.2914,-179.6872 324.2914,-157.6872 253.2914,-157.6872"/>
<polygon fill="none" stroke="#000000" points="253.2914,-157.6872 253.2914,-179.6872 324.2914,-179.6872 324.2914,-157.6872 253.2914,-157.6872"/>
<text text-anchor="start" x="267.4176" y="-164.0872" font-family="Times,serif" font-size="14.00" fill="#000000">Laravel</text>
<polygon fill="#ffffff" stroke="transparent" points="253.2914,-135.6872 253.2914,-157.6872 324.2914,-157.6872 324.2914,-135.6872 253.2914,-135.6872"/>
<polygon fill="none" stroke="#000000" points="253.2914,-135.6872 253.2914,-157.6872 324.2914,-157.6872 324.2914,-135.6872 253.2914,-135.6872"/>
<text text-anchor="start" x="256.135" y="-142.0872" font-family="Times,serif" font-size="14.00" fill="#000000">Description</text>
</g>
<!-- php&#45;&gt;laravel -->
<g id="edge34" class="edge">
<title>php&#45;&gt;laravel</title>
<path fill="none" stroke="#000000" stroke-width="3" d="M344.9326,-228.1141C323.816,-202.3072 314.747,-191.1485 305.6787,-179.7434"/>
</g>
<!-- ios -->
<g id="node36" class="node">
<title>ios</title>
<polygon fill="#ffff00" stroke="transparent" points="517.0064,-22 517.0064,-44 588.0064,-44 588.0064,-22 517.0064,-22"/>
<polygon fill="none" stroke="#000000" points="517.0064,-22 517.0064,-44 588.0064,-44 588.0064,-22 517.0064,-22"/>
<text text-anchor="start" x="541.6165" y="-28.4" font-family="Times,serif" font-size="14.00" fill="#000000">iOS</text>
<polygon fill="#ffffff" stroke="transparent" points="517.0064,0 517.0064,-22 588.0064,-22 588.0064,0 517.0064,0"/>
<polygon fill="none" stroke="#000000" points="517.0064,0 517.0064,-22 588.0064,-22 588.0064,0 517.0064,0"/>
<text text-anchor="start" x="519.85" y="-6.4" font-family="Times,serif" font-size="14.00" fill="#000000">Description</text>
</g>
<!-- swift&#45;&gt;ios -->
<g id="edge35" class="edge">
<title>swift&#45;&gt;ios</title>
<path fill="none" stroke="#000000" stroke-width="3" d="M575.5164,-112.7103C564.6841,-74.4348 561.0692,-61.0816 557.0777,-44.1523"/>
</g>
</g>
</svg>
